ISO-10303-21;
HEADER;
FILE_DESCRIPTION(('FreeCAD Model'),'2;1');
FILE_NAME('Open CASCADE Shape Model','2023-10-27T21:11:44',(''),(''),
  'Open CASCADE STEP processor 7.6','FreeCAD','Unknown');
FILE_SCHEMA(('AUTOMOTIVE_DESIGN { 1 0 10303 214 1 1 1 1 }'));
ENDSEC;
DATA;
#1 = APPLICATION_PROTOCOL_DEFINITION('international standard',
  'automotive_design',2000,#2);
#2 = APPLICATION_CONTEXT(
  'core data for automotive mechanical design processes');
#3 = SHAPE_DEFINITION_REPRESENTATION(#4,#10);
#4 = PRODUCT_DEFINITION_SHAPE('','',#5);
#5 = PRODUCT_DEFINITION('design','',#6,#9);
#6 = PRODUCT_DEFINITION_FORMATION('','',#7);
#7 = PRODUCT('Square','Square','',(#8));
#8 = PRODUCT_CONTEXT('',#2,'mechanical');
#9 = PRODUCT_DEFINITION_CONTEXT('part definition',#2,'design');
#10 = ADVANCED_BREP_SHAPE_REPRESENTATION('',(#11,#15),#305);
#11 = AXIS2_PLACEMENT_3D('',#12,#13,#14);
#12 = CARTESIAN_POINT('',(0.,0.,0.));
#13 = DIRECTION('',(0.,0.,1.));
#14 = DIRECTION('',(1.,0.,-0.));
#15 = MANIFOLD_SOLID_BREP('',#16);
#16 = CLOSED_SHELL('',(#17,#57,#99,#141,#183,#225,#242,#259,#276,#293));
#17 = ADVANCED_FACE('',(#18),#52,.T.);
#18 = FACE_BOUND('',#19,.T.);
#19 = EDGE_LOOP('',(#20,#30,#38,#46));
#20 = ORIENTED_EDGE('',*,*,#21,.T.);
#21 = EDGE_CURVE('',#22,#24,#26,.T.);
#22 = VERTEX_POINT('',#23);
#23 = CARTESIAN_POINT('',(0.,0.,0.));
#24 = VERTEX_POINT('',#25);
#25 = CARTESIAN_POINT('',(8.,-6.E-15,4.E-15));
#26 = LINE('',#27,#28);
#27 = CARTESIAN_POINT('',(0.,0.,0.));
#28 = VECTOR('',#29,1.);
#29 = DIRECTION('',(1.,-5.6E-16,2.8E-16));
#30 = ORIENTED_EDGE('',*,*,#31,.T.);
#31 = EDGE_CURVE('',#24,#32,#34,.T.);
#32 = VERTEX_POINT('',#33);
#33 = CARTESIAN_POINT('',(8.,-1.,5.E-15));
#34 = LINE('',#35,#36);
#35 = CARTESIAN_POINT('',(8.,2.44E-15,-7.105427357601E-15));
#36 = VECTOR('',#37,1.);
#37 = DIRECTION('',(5.6E-16,-1.,5.6E-16));
#38 = ORIENTED_EDGE('',*,*,#39,.F.);
#39 = EDGE_CURVE('',#40,#32,#42,.T.);
#40 = VERTEX_POINT('',#41);
#41 = CARTESIAN_POINT('',(0.,-1.,1.E-15));
#42 = LINE('',#43,#44);
#43 = CARTESIAN_POINT('',(1.1E-16,-1.,7.8E-16));
#44 = VECTOR('',#45,1.);
#45 = DIRECTION('',(1.,-5.6E-16,2.8E-16));
#46 = ORIENTED_EDGE('',*,*,#47,.F.);
#47 = EDGE_CURVE('',#22,#40,#48,.T.);
#48 = LINE('',#49,#50);
#49 = CARTESIAN_POINT('',(0.,0.,0.));
#50 = VECTOR('',#51,1.);
#51 = DIRECTION('',(5.6E-16,-1.,5.6E-16));
#52 = PLANE('',#53);
#53 = AXIS2_PLACEMENT_3D('',#54,#55,#56);
#54 = CARTESIAN_POINT('',(0.,0.,0.));
#55 = DIRECTION('',(7.2E-16,-3.3E-16,-1.));
#56 = DIRECTION('',(1.1E-16,-1.,3.3E-16));
#57 = ADVANCED_FACE('',(#58,#83),#94,.T.);
#58 = FACE_BOUND('',#59,.T.);
#59 = EDGE_LOOP('',(#60,#70,#76,#77));
#60 = ORIENTED_EDGE('',*,*,#61,.T.);
#61 = EDGE_CURVE('',#62,#64,#66,.T.);
#62 = VERTEX_POINT('',#63);
#63 = CARTESIAN_POINT('',(-1.6E-14,1.E-14,18.5));
#64 = VERTEX_POINT('',#65);
#65 = CARTESIAN_POINT('',(8.,4.E-15,18.5));
#66 = LINE('',#67,#68);
#67 = CARTESIAN_POINT('',(-1.643E-14,2.05E-15,18.5));
#68 = VECTOR('',#69,1.);
#69 = DIRECTION('',(1.,-5.6E-16,2.8E-16));
#70 = ORIENTED_EDGE('',*,*,#71,.T.);
#71 = EDGE_CURVE('',#64,#24,#72,.T.);
#72 = LINE('',#73,#74);
#73 = CARTESIAN_POINT('',(8.,-3.72E-15,18.5));
#74 = VECTOR('',#75,1.);
#75 = DIRECTION('',(6.7E-16,3.3E-16,-1.));
#76 = ORIENTED_EDGE('',*,*,#21,.F.);
#77 = ORIENTED_EDGE('',*,*,#78,.F.);
#78 = EDGE_CURVE('',#62,#22,#79,.T.);
#79 = LINE('',#80,#81);
#80 = CARTESIAN_POINT('',(-1.232E-14,-6.16E-15,18.5));
#81 = VECTOR('',#82,1.);
#82 = DIRECTION('',(6.7E-16,3.3E-16,-1.));
#83 = FACE_BOUND('',#84,.T.);
#84 = EDGE_LOOP('',(#85));
#85 = ORIENTED_EDGE('',*,*,#86,.T.);
#86 = EDGE_CURVE('',#87,#87,#89,.T.);
#87 = VERTEX_POINT('',#88);
#88 = CARTESIAN_POINT('',(3.75,0.,5.35));
#89 = CIRCLE('',#90,1.65);
#90 = AXIS2_PLACEMENT_3D('',#91,#92,#93);
#91 = CARTESIAN_POINT('',(3.75,-1.E-15,7.));
#92 = DIRECTION('',(-6.7E-16,-1.,2.8E-16));
#93 = DIRECTION('',(4.4E-16,-2.8E-16,-1.));
#94 = PLANE('',#95);
#95 = AXIS2_PLACEMENT_3D('',#96,#97,#98);
#96 = CARTESIAN_POINT('',(-1.643E-14,2.05E-15,18.5));
#97 = DIRECTION('',(1.1E-16,1.,-5.6E-16));
#98 = DIRECTION('',(8.9E-16,-5.6E-16,-1.));
#99 = ADVANCED_FACE('',(#100,#125),#136,.T.);
#100 = FACE_BOUND('',#101,.T.);
#101 = EDGE_LOOP('',(#102,#103,#111,#119));
#102 = ORIENTED_EDGE('',*,*,#39,.T.);
#103 = ORIENTED_EDGE('',*,*,#104,.T.);
#104 = EDGE_CURVE('',#32,#105,#107,.T.);
#105 = VERTEX_POINT('',#106);
#106 = CARTESIAN_POINT('',(8.,-1.,20.));
#107 = LINE('',#108,#109);
#108 = CARTESIAN_POINT('',(8.,-1.,-7.105427357601E-15));
#109 = VECTOR('',#110,1.);
#110 = DIRECTION('',(-6.7E-16,-3.3E-16,1.));
#111 = ORIENTED_EDGE('',*,*,#112,.F.);
#112 = EDGE_CURVE('',#113,#105,#115,.T.);
#113 = VERTEX_POINT('',#114);
#114 = CARTESIAN_POINT('',(-1.8E-14,-1.,20.));
#115 = LINE('',#116,#117);
#116 = CARTESIAN_POINT('',(-1.765E-14,-1.,20.));
#117 = VECTOR('',#118,1.);
#118 = DIRECTION('',(1.,-5.6E-16,2.8E-16));
#119 = ORIENTED_EDGE('',*,*,#120,.F.);
#120 = EDGE_CURVE('',#40,#113,#121,.T.);
#121 = LINE('',#122,#123);
#122 = CARTESIAN_POINT('',(5.6E-16,-1.,5.6E-16));
#123 = VECTOR('',#124,1.);
#124 = DIRECTION('',(-6.7E-16,-3.3E-16,1.));
#125 = FACE_BOUND('',#126,.T.);
#126 = EDGE_LOOP('',(#127));
#127 = ORIENTED_EDGE('',*,*,#128,.F.);
#128 = EDGE_CURVE('',#129,#129,#131,.T.);
#129 = VERTEX_POINT('',#130);
#130 = CARTESIAN_POINT('',(3.75,-1.,5.35));
#131 = CIRCLE('',#132,1.65);
#132 = AXIS2_PLACEMENT_3D('',#133,#134,#135);
#133 = CARTESIAN_POINT('',(3.75,-1.,7.));
#134 = DIRECTION('',(-5.E-16,-1.,-6.E-17));
#135 = DIRECTION('',(-0.,6.E-17,-1.));
#136 = PLANE('',#137);
#137 = AXIS2_PLACEMENT_3D('',#138,#139,#140);
#138 = CARTESIAN_POINT('',(1.1E-16,-1.,7.8E-16));
#139 = DIRECTION('',(-1.1E-16,-1.,5.6E-16));
#140 = DIRECTION('',(-8.9E-16,5.6E-16,1.));
#141 = ADVANCED_FACE('',(#142),#178,.F.);
#142 = FACE_BOUND('',#143,.T.);
#143 = EDGE_LOOP('',(#144,#145,#146,#154,#162,#170,#177));
#144 = ORIENTED_EDGE('',*,*,#47,.T.);
#145 = ORIENTED_EDGE('',*,*,#120,.T.);
#146 = ORIENTED_EDGE('',*,*,#147,.T.);
#147 = EDGE_CURVE('',#113,#148,#150,.T.);
#148 = VERTEX_POINT('',#149);
#149 = CARTESIAN_POINT('',(-1.1E-14,19.,20.));
#150 = LINE('',#151,#152);
#151 = CARTESIAN_POINT('',(-1.277E-14,-1.,20.));
#152 = VECTOR('',#153,1.);
#153 = DIRECTION('',(-5.6E-16,1.,-5.6E-16));
#154 = ORIENTED_EDGE('',*,*,#155,.T.);
#155 = EDGE_CURVE('',#148,#156,#158,.T.);
#156 = VERTEX_POINT('',#157);
#157 = CARTESIAN_POINT('',(-1.1E-14,19.,19.));
#158 = LINE('',#159,#160);
#159 = CARTESIAN_POINT('',(-2.387E-14,19.,20.));
#160 = VECTOR('',#161,1.);
#161 = DIRECTION('',(6.7E-16,3.3E-16,-1.));
#162 = ORIENTED_EDGE('',*,*,#163,.T.);
#163 = EDGE_CURVE('',#156,#164,#166,.T.);
#164 = VERTEX_POINT('',#165);
#165 = CARTESIAN_POINT('',(-1.7E-14,0.5,19.));
#166 = LINE('',#167,#168);
#167 = CARTESIAN_POINT('',(-2.32E-14,19.,19.));
#168 = VECTOR('',#169,1.);
#169 = DIRECTION('',(5.6E-16,-1.,5.6E-16));
#170 = ORIENTED_EDGE('',*,*,#171,.T.);
#171 = EDGE_CURVE('',#164,#62,#172,.T.);
#172 = CIRCLE('',#173,0.5);
#173 = AXIS2_PLACEMENT_3D('',#174,#175,#176);
#174 = CARTESIAN_POINT('',(-1.26E-14,0.5,18.5));
#175 = DIRECTION('',(1.,5.6E-16,6.7E-16));
#176 = DIRECTION('',(-5.6E-16,1.,-5.6E-16));
#177 = ORIENTED_EDGE('',*,*,#78,.T.);
#178 = PLANE('',#179);
#179 = AXIS2_PLACEMENT_3D('',#180,#181,#182);
#180 = CARTESIAN_POINT('',(-1.438E-14,4.50034709491,14.49965290509));
#181 = DIRECTION('',(1.,-5.6E-16,0.));
#182 = DIRECTION('',(-1.848E-31,-3.3E-16,1.));
#183 = ADVANCED_FACE('',(#184),#220,.T.);
#184 = FACE_BOUND('',#185,.F.);
#185 = EDGE_LOOP('',(#186,#187,#188,#196,#204,#212,#219));
#186 = ORIENTED_EDGE('',*,*,#31,.T.);
#187 = ORIENTED_EDGE('',*,*,#104,.T.);
#188 = ORIENTED_EDGE('',*,*,#189,.T.);
#189 = EDGE_CURVE('',#105,#190,#192,.T.);
#190 = VERTEX_POINT('',#191);
#191 = CARTESIAN_POINT('',(8.,19.,20.));
#192 = LINE('',#193,#194);
#193 = CARTESIAN_POINT('',(8.,-1.,20.));
#194 = VECTOR('',#195,1.);
#195 = DIRECTION('',(-5.6E-16,1.,-5.6E-16));
#196 = ORIENTED_EDGE('',*,*,#197,.T.);
#197 = EDGE_CURVE('',#190,#198,#200,.T.);
#198 = VERTEX_POINT('',#199);
#199 = CARTESIAN_POINT('',(8.,19.,19.));
#200 = LINE('',#201,#202);
#201 = CARTESIAN_POINT('',(8.,19.,20.));
#202 = VECTOR('',#203,1.);
#203 = DIRECTION('',(6.7E-16,3.3E-16,-1.));
#204 = ORIENTED_EDGE('',*,*,#205,.T.);
#205 = EDGE_CURVE('',#198,#206,#208,.T.);
#206 = VERTEX_POINT('',#207);
#207 = CARTESIAN_POINT('',(8.,0.5,19.));
#208 = LINE('',#209,#210);
#209 = CARTESIAN_POINT('',(8.,19.,19.));
#210 = VECTOR('',#211,1.);
#211 = DIRECTION('',(5.6E-16,-1.,5.6E-16));
#212 = ORIENTED_EDGE('',*,*,#213,.T.);
#213 = EDGE_CURVE('',#206,#64,#214,.T.);
#214 = CIRCLE('',#215,0.5);
#215 = AXIS2_PLACEMENT_3D('',#216,#217,#218);
#216 = CARTESIAN_POINT('',(8.,0.5,18.5));
#217 = DIRECTION('',(1.,5.6E-16,6.7E-16));
#218 = DIRECTION('',(-5.6E-16,1.,-5.6E-16));
#219 = ORIENTED_EDGE('',*,*,#71,.T.);
#220 = PLANE('',#221);
#221 = AXIS2_PLACEMENT_3D('',#222,#223,#224);
#222 = CARTESIAN_POINT('',(8.,4.50034709491,14.49965290509));
#223 = DIRECTION('',(1.,-5.6E-16,0.));
#224 = DIRECTION('',(-1.848E-31,-3.3E-16,1.));
#225 = ADVANCED_FACE('',(#226),#237,.F.);
#226 = FACE_BOUND('',#227,.T.);
#227 = EDGE_LOOP('',(#228,#234,#235,#236));
#228 = ORIENTED_EDGE('',*,*,#229,.T.);
#229 = EDGE_CURVE('',#164,#206,#230,.T.);
#230 = LINE('',#231,#232);
#231 = CARTESIAN_POINT('',(-1.693E-14,0.5,19.));
#232 = VECTOR('',#233,1.);
#233 = DIRECTION('',(1.,-5.6E-16,2.8E-16));
#234 = ORIENTED_EDGE('',*,*,#213,.T.);
#235 = ORIENTED_EDGE('',*,*,#61,.F.);
#236 = ORIENTED_EDGE('',*,*,#171,.F.);
#237 = CYLINDRICAL_SURFACE('',#238,0.5);
#238 = AXIS2_PLACEMENT_3D('',#239,#240,#241);
#239 = CARTESIAN_POINT('',(-1.649E-14,0.5,18.5));
#240 = DIRECTION('',(-1.,3.3E-16,-4.4E-16));
#241 = DIRECTION('',(3.3E-16,1.,-7.8E-16));
#242 = ADVANCED_FACE('',(#243),#254,.F.);
#243 = FACE_BOUND('',#244,.F.);
#244 = EDGE_LOOP('',(#245,#246,#252,#253));
#245 = ORIENTED_EDGE('',*,*,#128,.F.);
#246 = ORIENTED_EDGE('',*,*,#247,.T.);
#247 = EDGE_CURVE('',#129,#87,#248,.T.);
#248 = LINE('',#249,#250);
#249 = CARTESIAN_POINT('',(3.75,-1.,5.35));
#250 = VECTOR('',#251,1.);
#251 = DIRECTION('',(3.9E-16,1.,-5.E-16));
#252 = ORIENTED_EDGE('',*,*,#86,.T.);
#253 = ORIENTED_EDGE('',*,*,#247,.F.);
#254 = CYLINDRICAL_SURFACE('',#255,1.65);
#255 = AXIS2_PLACEMENT_3D('',#256,#257,#258);
#256 = CARTESIAN_POINT('',(3.75,-1.,7.));
#257 = DIRECTION('',(-6.7E-16,-1.,2.8E-16));
#258 = DIRECTION('',(4.4E-16,-2.8E-16,-1.));
#259 = ADVANCED_FACE('',(#260),#271,.T.);
#260 = FACE_BOUND('',#261,.T.);
#261 = EDGE_LOOP('',(#262,#263,#264,#270));
#262 = ORIENTED_EDGE('',*,*,#112,.T.);
#263 = ORIENTED_EDGE('',*,*,#189,.T.);
#264 = ORIENTED_EDGE('',*,*,#265,.F.);
#265 = EDGE_CURVE('',#148,#190,#266,.T.);
#266 = LINE('',#267,#268);
#267 = CARTESIAN_POINT('',(-1.987E-14,19.,20.));
#268 = VECTOR('',#269,1.);
#269 = DIRECTION('',(1.,-5.6E-16,2.8E-16));
#270 = ORIENTED_EDGE('',*,*,#147,.F.);
#271 = PLANE('',#272);
#272 = AXIS2_PLACEMENT_3D('',#273,#274,#275);
#273 = CARTESIAN_POINT('',(-1.765E-14,-1.,20.));
#274 = DIRECTION('',(-7.2E-16,3.3E-16,1.));
#275 = DIRECTION('',(-1.1E-16,1.,-3.3E-16));
#276 = ADVANCED_FACE('',(#277),#288,.T.);
#277 = FACE_BOUND('',#278,.T.);
#278 = EDGE_LOOP('',(#279,#280,#281,#287));
#279 = ORIENTED_EDGE('',*,*,#265,.T.);
#280 = ORIENTED_EDGE('',*,*,#197,.T.);
#281 = ORIENTED_EDGE('',*,*,#282,.F.);
#282 = EDGE_CURVE('',#156,#198,#283,.T.);
#283 = LINE('',#284,#285);
#284 = CARTESIAN_POINT('',(-1.898E-14,19.,19.));
#285 = VECTOR('',#286,1.);
#286 = DIRECTION('',(1.,-5.6E-16,2.8E-16));
#287 = ORIENTED_EDGE('',*,*,#155,.F.);
#288 = PLANE('',#289);
#289 = AXIS2_PLACEMENT_3D('',#290,#291,#292);
#290 = CARTESIAN_POINT('',(-1.987E-14,19.,20.));
#291 = DIRECTION('',(1.1E-16,1.,-5.6E-16));
#292 = DIRECTION('',(8.9E-16,-5.6E-16,-1.));
#293 = ADVANCED_FACE('',(#294),#300,.T.);
#294 = FACE_BOUND('',#295,.T.);
#295 = EDGE_LOOP('',(#296,#297,#298,#299));
#296 = ORIENTED_EDGE('',*,*,#282,.T.);
#297 = ORIENTED_EDGE('',*,*,#205,.T.);
#298 = ORIENTED_EDGE('',*,*,#229,.F.);
#299 = ORIENTED_EDGE('',*,*,#163,.F.);
#300 = PLANE('',#301);
#301 = AXIS2_PLACEMENT_3D('',#302,#303,#304);
#302 = CARTESIAN_POINT('',(-1.898E-14,19.,19.));
#303 = DIRECTION('',(7.2E-16,-3.3E-16,-1.));
#304 = DIRECTION('',(1.1E-16,-1.,3.3E-16));
#305 = ( GEOMETRIC_REPRESENTATION_CONTEXT(3) 
GLOBAL_UNCERTAINTY_ASSIGNED_CONTEXT((#309)) GLOBAL_UNIT_ASSIGNED_CONTEXT
((#306,#307,#308)) REPRESENTATION_CONTEXT('Context #1',
  '3D Context with UNIT and UNCERTAINTY') );
#306 = ( LENGTH_UNIT() NAMED_UNIT(*) SI_UNIT(.MILLI.,.METRE.) );
#307 = ( NAMED_UNIT(*) PLANE_ANGLE_UNIT() SI_UNIT($,.RADIAN.) );
#308 = ( NAMED_UNIT(*) SI_UNIT($,.STERADIAN.) SOLID_ANGLE_UNIT() );
#309 = UNCERTAINTY_MEASURE_WITH_UNIT(LENGTH_MEASURE(1.E-07),#306,
  'distance_accuracy_value','confusion accuracy');
#310 = PRODUCT_RELATED_PRODUCT_CATEGORY('part',$,(#7));
#311 = MECHANICAL_DESIGN_GEOMETRIC_PRESENTATION_REPRESENTATION('',(#312)
  ,#305);
#312 = STYLED_ITEM('color',(#313),#15);
#313 = PRESENTATION_STYLE_ASSIGNMENT((#314,#320));
#314 = SURFACE_STYLE_USAGE(.BOTH.,#315);
#315 = SURFACE_SIDE_STYLE('',(#316));
#316 = SURFACE_STYLE_FILL_AREA(#317);
#317 = FILL_AREA_STYLE('',(#318));
#318 = FILL_AREA_STYLE_COLOUR('',#319);
#319 = COLOUR_RGB('',0.254901970902,0.254901970902,0.254901970902);
#320 = CURVE_STYLE('',#321,POSITIVE_LENGTH_MEASURE(0.1),#322);
#321 = DRAUGHTING_PRE_DEFINED_CURVE_FONT('continuous');
#322 = COLOUR_RGB('',9.803921802644E-02,9.803921802644E-02,
  9.803921802644E-02);
ENDSEC;
END-ISO-10303-21;
