ISO-10303-21;
HEADER;
/* Generated by software containing ST-Developer
 * from STEP Tools, Inc. (www.steptools.com) 
 */

FILE_DESCRIPTION(
/* description */ (''),
/* implementation_level */ '2;1');

FILE_NAME(
/* name */ 'D:\\Downloads\\Chrome\\TO220_Heatsink.stp',
/* time_stamp */ '2019-06-19T09:59:58+06:00',
/* author */ ('Nursultan'),
/* organization */ (''),
/* preprocessor_version */ 'ST-DEVELOPER v16.5',
/* originating_system */ 'Autodesk Inventor 2017',
/* authorisation */ '');

FILE_SCHEMA (('AUTOMOTIVE_DESIGN { 1 0 10303 214 3 1 1 }'));
ENDSEC;

DATA;
#10=MECHANICAL_DESIGN_GEOMETRIC_PRESENTATION_REPRESENTATION('',(#13),#2093);
#11=SHAPE_REPRESENTATION_RELATIONSHIP('SRR','None',#2102,#12);
#12=ADVANCED_BREP_SHAPE_REPRESENTATION('',(#14),#2092);
#13=STYLED_ITEM('',(#2111),#14);
#14=MANIFOLD_SOLID_BREP('\X2\04220432043504400434043E0435\X0\ \X2\0442
0435043B043E\X0\1',#1263);
#15=FACE_BOUND('',#162,.T.);
#16=FACE_BOUND('',#165,.T.);
#17=FACE_BOUND('',#169,.T.);
#18=CIRCLE('',#1284,0.8128);
#19=CIRCLE('',#1285,0.8128);
#20=CIRCLE('',#1286,0.8128);
#21=CIRCLE('',#1287,0.8128);
#22=CIRCLE('',#1288,0.8128);
#23=CIRCLE('',#1289,0.8128);
#24=CIRCLE('',#1290,0.8128);
#25=CIRCLE('',#1291,0.8128);
#26=CIRCLE('',#1292,0.8128);
#27=CIRCLE('',#1293,0.8128);
#28=CIRCLE('',#1295,1.5748);
#29=CIRCLE('',#1296,1.5748);
#30=CIRCLE('',#1297,1.5748);
#31=CIRCLE('',#1298,1.5748);
#32=CIRCLE('',#1299,1.5748);
#33=CIRCLE('',#1300,1.5748);
#34=CIRCLE('',#1301,1.5748);
#35=CIRCLE('',#1302,1.5748);
#36=CIRCLE('',#1303,1.5748);
#37=CIRCLE('',#1304,1.5748);
#38=CIRCLE('',#1315,1.5748);
#39=CIRCLE('',#1316,0.8128);
#40=CIRCLE('',#1319,1.5748);
#41=CIRCLE('',#1320,0.8128);
#42=CIRCLE('',#1323,1.905);
#43=CIRCLE('',#1326,1.905);
#44=CIRCLE('',#1328,0.8128);
#45=CIRCLE('',#1329,0.8128);
#46=CIRCLE('',#1330,0.8128);
#47=CIRCLE('',#1331,0.8128);
#48=CIRCLE('',#1332,0.8128);
#49=CIRCLE('',#1333,0.8128);
#50=CIRCLE('',#1334,0.8128);
#51=CIRCLE('',#1335,0.8128);
#52=CIRCLE('',#1337,1.5748);
#53=CIRCLE('',#1338,1.5748);
#54=CIRCLE('',#1339,1.5748);
#55=CIRCLE('',#1340,1.5748);
#56=CIRCLE('',#1341,1.5748);
#57=CIRCLE('',#1342,1.5748);
#58=CIRCLE('',#1343,1.5748);
#59=CIRCLE('',#1344,1.5748);
#60=CYLINDRICAL_SURFACE('',#1283,0.8128);
#61=CYLINDRICAL_SURFACE('',#1294,1.5748);
#62=CYLINDRICAL_SURFACE('',#1327,0.8128);
#63=CYLINDRICAL_SURFACE('',#1336,1.5748);
#64=CYLINDRICAL_SURFACE('',#1345,1.905);
#65=FACE_OUTER_BOUND('',#128,.T.);
#66=FACE_OUTER_BOUND('',#129,.T.);
#67=FACE_OUTER_BOUND('',#130,.T.);
#68=FACE_OUTER_BOUND('',#131,.T.);
#69=FACE_OUTER_BOUND('',#132,.T.);
#70=FACE_OUTER_BOUND('',#133,.T.);
#71=FACE_OUTER_BOUND('',#134,.T.);
#72=FACE_OUTER_BOUND('',#135,.T.);
#73=FACE_OUTER_BOUND('',#136,.T.);
#74=FACE_OUTER_BOUND('',#137,.T.);
#75=FACE_OUTER_BOUND('',#138,.T.);
#76=FACE_OUTER_BOUND('',#139,.T.);
#77=FACE_OUTER_BOUND('',#140,.T.);
#78=FACE_OUTER_BOUND('',#141,.T.);
#79=FACE_OUTER_BOUND('',#142,.T.);
#80=FACE_OUTER_BOUND('',#143,.T.);
#81=FACE_OUTER_BOUND('',#144,.T.);
#82=FACE_OUTER_BOUND('',#145,.T.);
#83=FACE_OUTER_BOUND('',#146,.T.);
#84=FACE_OUTER_BOUND('',#147,.T.);
#85=FACE_OUTER_BOUND('',#148,.T.);
#86=FACE_OUTER_BOUND('',#149,.T.);
#87=FACE_OUTER_BOUND('',#150,.T.);
#88=FACE_OUTER_BOUND('',#151,.T.);
#89=FACE_OUTER_BOUND('',#152,.T.);
#90=FACE_OUTER_BOUND('',#153,.T.);
#91=FACE_OUTER_BOUND('',#154,.T.);
#92=FACE_OUTER_BOUND('',#155,.T.);
#93=FACE_OUTER_BOUND('',#156,.T.);
#94=FACE_OUTER_BOUND('',#157,.T.);
#95=FACE_OUTER_BOUND('',#158,.T.);
#96=FACE_OUTER_BOUND('',#159,.T.);
#97=FACE_OUTER_BOUND('',#160,.T.);
#98=FACE_OUTER_BOUND('',#161,.T.);
#99=FACE_OUTER_BOUND('',#163,.T.);
#100=FACE_OUTER_BOUND('',#164,.T.);
#101=FACE_OUTER_BOUND('',#166,.T.);
#102=FACE_OUTER_BOUND('',#167,.T.);
#103=FACE_OUTER_BOUND('',#168,.T.);
#104=FACE_OUTER_BOUND('',#170,.T.);
#105=FACE_OUTER_BOUND('',#171,.T.);
#106=FACE_OUTER_BOUND('',#172,.T.);
#107=FACE_OUTER_BOUND('',#173,.T.);
#108=FACE_OUTER_BOUND('',#174,.T.);
#109=FACE_OUTER_BOUND('',#175,.T.);
#110=FACE_OUTER_BOUND('',#176,.T.);
#111=FACE_OUTER_BOUND('',#177,.T.);
#112=FACE_OUTER_BOUND('',#178,.T.);
#113=FACE_OUTER_BOUND('',#179,.T.);
#114=FACE_OUTER_BOUND('',#180,.T.);
#115=FACE_OUTER_BOUND('',#181,.T.);
#116=FACE_OUTER_BOUND('',#182,.T.);
#117=FACE_OUTER_BOUND('',#183,.T.);
#118=FACE_OUTER_BOUND('',#184,.T.);
#119=FACE_OUTER_BOUND('',#185,.T.);
#120=FACE_OUTER_BOUND('',#186,.T.);
#121=FACE_OUTER_BOUND('',#187,.T.);
#122=FACE_OUTER_BOUND('',#188,.T.);
#123=FACE_OUTER_BOUND('',#189,.T.);
#124=FACE_OUTER_BOUND('',#190,.T.);
#125=FACE_OUTER_BOUND('',#191,.T.);
#126=FACE_OUTER_BOUND('',#192,.T.);
#127=FACE_OUTER_BOUND('',#193,.T.);
#128=EDGE_LOOP('',(#778,#779,#780,#781));
#129=EDGE_LOOP('',(#782,#783,#784,#785));
#130=EDGE_LOOP('',(#786,#787,#788,#789));
#131=EDGE_LOOP('',(#790,#791,#792,#793));
#132=EDGE_LOOP('',(#794,#795,#796,#797));
#133=EDGE_LOOP('',(#798,#799,#800,#801));
#134=EDGE_LOOP('',(#802,#803,#804,#805));
#135=EDGE_LOOP('',(#806,#807,#808,#809));
#136=EDGE_LOOP('',(#810,#811,#812,#813));
#137=EDGE_LOOP('',(#814,#815,#816,#817));
#138=EDGE_LOOP('',(#818,#819,#820,#821));
#139=EDGE_LOOP('',(#822,#823,#824,#825));
#140=EDGE_LOOP('',(#826,#827,#828,#829));
#141=EDGE_LOOP('',(#830,#831,#832,#833));
#142=EDGE_LOOP('',(#834,#835,#836,#837));
#143=EDGE_LOOP('',(#838,#839,#840,#841));
#144=EDGE_LOOP('',(#842,#843,#844,#845));
#145=EDGE_LOOP('',(#846,#847,#848,#849));
#146=EDGE_LOOP('',(#850,#851,#852,#853,#854,#855,#856,#857,#858,#859,#860,
#861,#862,#863,#864,#865,#866,#867,#868,#869));
#147=EDGE_LOOP('',(#870,#871,#872,#873,#874,#875,#876,#877,#878,#879,#880,
#881,#882,#883,#884,#885,#886,#887,#888,#889));
#148=EDGE_LOOP('',(#890,#891,#892,#893));
#149=EDGE_LOOP('',(#894,#895,#896,#897));
#150=EDGE_LOOP('',(#898,#899,#900,#901));
#151=EDGE_LOOP('',(#902,#903,#904,#905));
#152=EDGE_LOOP('',(#906,#907,#908,#909));
#153=EDGE_LOOP('',(#910,#911,#912,#913));
#154=EDGE_LOOP('',(#914,#915,#916,#917));
#155=EDGE_LOOP('',(#918,#919,#920,#921));
#156=EDGE_LOOP('',(#922,#923,#924,#925));
#157=EDGE_LOOP('',(#926,#927,#928,#929,#930,#931,#932,#933,#934,#935,#936,
#937));
#158=EDGE_LOOP('',(#938,#939,#940,#941));
#159=EDGE_LOOP('',(#942,#943,#944,#945,#946,#947,#948,#949,#950,#951,#952,
#953));
#160=EDGE_LOOP('',(#954,#955,#956,#957));
#161=EDGE_LOOP('',(#958,#959,#960,#961));
#162=EDGE_LOOP('',(#962));
#163=EDGE_LOOP('',(#963,#964,#965,#966));
#164=EDGE_LOOP('',(#967,#968,#969,#970));
#165=EDGE_LOOP('',(#971));
#166=EDGE_LOOP('',(#972,#973,#974,#975,#976,#977,#978,#979,#980,#981,#982,
#983,#984,#985,#986,#987,#988,#989,#990,#991));
#167=EDGE_LOOP('',(#992,#993,#994,#995,#996,#997,#998,#999,#1000,#1001,
#1002,#1003,#1004,#1005,#1006,#1007,#1008,#1009,#1010,#1011));
#168=EDGE_LOOP('',(#1012));
#169=EDGE_LOOP('',(#1013));
#170=EDGE_LOOP('',(#1014,#1015,#1016,#1017,#1018,#1019));
#171=EDGE_LOOP('',(#1020,#1021,#1022,#1023));
#172=EDGE_LOOP('',(#1024,#1025,#1026,#1027,#1028,#1029));
#173=EDGE_LOOP('',(#1030,#1031,#1032,#1033,#1034,#1035));
#174=EDGE_LOOP('',(#1036,#1037,#1038,#1039));
#175=EDGE_LOOP('',(#1040,#1041,#1042,#1043,#1044,#1045));
#176=EDGE_LOOP('',(#1046,#1047,#1048,#1049,#1050,#1051));
#177=EDGE_LOOP('',(#1052,#1053,#1054,#1055));
#178=EDGE_LOOP('',(#1056,#1057,#1058,#1059,#1060,#1061));
#179=EDGE_LOOP('',(#1062,#1063,#1064,#1065,#1066,#1067));
#180=EDGE_LOOP('',(#1068,#1069,#1070,#1071));
#181=EDGE_LOOP('',(#1072,#1073,#1074,#1075,#1076,#1077));
#182=EDGE_LOOP('',(#1078,#1079,#1080,#1081,#1082,#1083));
#183=EDGE_LOOP('',(#1084,#1085,#1086,#1087));
#184=EDGE_LOOP('',(#1088,#1089,#1090,#1091,#1092,#1093));
#185=EDGE_LOOP('',(#1094,#1095,#1096,#1097,#1098,#1099));
#186=EDGE_LOOP('',(#1100,#1101,#1102,#1103));
#187=EDGE_LOOP('',(#1104,#1105,#1106,#1107,#1108,#1109));
#188=EDGE_LOOP('',(#1110,#1111,#1112,#1113,#1114,#1115));
#189=EDGE_LOOP('',(#1116,#1117,#1118,#1119));
#190=EDGE_LOOP('',(#1120,#1121,#1122,#1123,#1124,#1125));
#191=EDGE_LOOP('',(#1126,#1127,#1128,#1129,#1130,#1131));
#192=EDGE_LOOP('',(#1132,#1133,#1134,#1135));
#193=EDGE_LOOP('',(#1136,#1137,#1138,#1139,#1140,#1141));
#194=LINE('',#1726,#334);
#195=LINE('',#1728,#335);
#196=LINE('',#1730,#336);
#197=LINE('',#1731,#337);
#198=LINE('',#1735,#338);
#199=LINE('',#1736,#339);
#200=LINE('',#1737,#340);
#201=LINE('',#1741,#341);
#202=LINE('',#1742,#342);
#203=LINE('',#1743,#343);
#204=LINE('',#1747,#344);
#205=LINE('',#1749,#345);
#206=LINE('',#1751,#346);
#207=LINE('',#1752,#347);
#208=LINE('',#1755,#348);
#209=LINE('',#1757,#349);
#210=LINE('',#1758,#350);
#211=LINE('',#1761,#351);
#212=LINE('',#1763,#352);
#213=LINE('',#1764,#353);
#214=LINE('',#1768,#354);
#215=LINE('',#1770,#355);
#216=LINE('',#1772,#356);
#217=LINE('',#1773,#357);
#218=LINE('',#1776,#358);
#219=LINE('',#1778,#359);
#220=LINE('',#1779,#360);
#221=LINE('',#1782,#361);
#222=LINE('',#1784,#362);
#223=LINE('',#1785,#363);
#224=LINE('',#1789,#364);
#225=LINE('',#1791,#365);
#226=LINE('',#1793,#366);
#227=LINE('',#1794,#367);
#228=LINE('',#1797,#368);
#229=LINE('',#1799,#369);
#230=LINE('',#1800,#370);
#231=LINE('',#1803,#371);
#232=LINE('',#1805,#372);
#233=LINE('',#1806,#373);
#234=LINE('',#1810,#374);
#235=LINE('',#1812,#375);
#236=LINE('',#1814,#376);
#237=LINE('',#1815,#377);
#238=LINE('',#1819,#378);
#239=LINE('',#1821,#379);
#240=LINE('',#1823,#380);
#241=LINE('',#1824,#381);
#242=LINE('',#1827,#382);
#243=LINE('',#1829,#383);
#244=LINE('',#1830,#384);
#245=LINE('',#1833,#385);
#246=LINE('',#1835,#386);
#247=LINE('',#1836,#387);
#248=LINE('',#1839,#388);
#249=LINE('',#1841,#389);
#250=LINE('',#1842,#390);
#251=LINE('',#1845,#391);
#252=LINE('',#1847,#392);
#253=LINE('',#1848,#393);
#254=LINE('',#1855,#394);
#255=LINE('',#1859,#395);
#256=LINE('',#1863,#396);
#257=LINE('',#1867,#397);
#258=LINE('',#1871,#398);
#259=LINE('',#1875,#399);
#260=LINE('',#1879,#400);
#261=LINE('',#1883,#401);
#262=LINE('',#1888,#402);
#263=LINE('',#1893,#403);
#264=LINE('',#1897,#404);
#265=LINE('',#1901,#405);
#266=LINE('',#1905,#406);
#267=LINE('',#1909,#407);
#268=LINE('',#1913,#408);
#269=LINE('',#1917,#409);
#270=LINE('',#1922,#410);
#271=LINE('',#1924,#411);
#272=LINE('',#1926,#412);
#273=LINE('',#1927,#413);
#274=LINE('',#1929,#414);
#275=LINE('',#1930,#415);
#276=LINE('',#1932,#416);
#277=LINE('',#1933,#417);
#278=LINE('',#1937,#418);
#279=LINE('',#1939,#419);
#280=LINE('',#1941,#420);
#281=LINE('',#1942,#421);
#282=LINE('',#1944,#422);
#283=LINE('',#1945,#423);
#284=LINE('',#1947,#424);
#285=LINE('',#1948,#425);
#286=LINE('',#1952,#426);
#287=LINE('',#1954,#427);
#288=LINE('',#1956,#428);
#289=LINE('',#1957,#429);
#290=LINE('',#1959,#430);
#291=LINE('',#1960,#431);
#292=LINE('',#1962,#432);
#293=LINE('',#1963,#433);
#294=LINE('',#1966,#434);
#295=LINE('',#1970,#435);
#296=LINE('',#1972,#436);
#297=LINE('',#1974,#437);
#298=LINE('',#1977,#438);
#299=LINE('',#1980,#439);
#300=LINE('',#1982,#440);
#301=LINE('',#1983,#441);
#302=LINE('',#1987,#442);
#303=LINE('',#1989,#443);
#304=LINE('',#1993,#444);
#305=LINE('',#1994,#445);
#306=LINE('',#1996,#446);
#307=LINE('',#2001,#447);
#308=LINE('',#2002,#448);
#309=LINE('',#2004,#449);
#310=LINE('',#2010,#450);
#311=LINE('',#2015,#451);
#312=LINE('',#2020,#452);
#313=LINE('',#2025,#453);
#314=LINE('',#2032,#454);
#315=LINE('',#2037,#455);
#316=LINE('',#2042,#456);
#317=LINE('',#2047,#457);
#318=LINE('',#2051,#458);
#319=LINE('',#2053,#459);
#320=LINE('',#2056,#460);
#321=LINE('',#2058,#461);
#322=LINE('',#2061,#462);
#323=LINE('',#2063,#463);
#324=LINE('',#2066,#464);
#325=LINE('',#2068,#465);
#326=LINE('',#2071,#466);
#327=LINE('',#2073,#467);
#328=LINE('',#2076,#468);
#329=LINE('',#2078,#469);
#330=LINE('',#2081,#470);
#331=LINE('',#2083,#471);
#332=LINE('',#2086,#472);
#333=LINE('',#2088,#473);
#334=VECTOR('',#1374,2.54);
#335=VECTOR('',#1375,7.9502);
#336=VECTOR('',#1376,2.54);
#337=VECTOR('',#1377,7.95019999999999);
#338=VECTOR('',#1380,2.54);
#339=VECTOR('',#1381,1.1684);
#340=VECTOR('',#1382,1.1684);
#341=VECTOR('',#1385,2.54);
#342=VECTOR('',#1386,7.5438);
#343=VECTOR('',#1387,7.5438);
#344=VECTOR('',#1390,2.54);
#345=VECTOR('',#1391,7.9502);
#346=VECTOR('',#1392,2.54);
#347=VECTOR('',#1393,7.9502);
#348=VECTOR('',#1396,1.1684);
#349=VECTOR('',#1397,2.54);
#350=VECTOR('',#1398,1.1684);
#351=VECTOR('',#1401,7.5438);
#352=VECTOR('',#1402,2.54);
#353=VECTOR('',#1403,7.5438);
#354=VECTOR('',#1406,2.54);
#355=VECTOR('',#1407,7.9502);
#356=VECTOR('',#1408,2.54);
#357=VECTOR('',#1409,7.9502);
#358=VECTOR('',#1412,1.1684);
#359=VECTOR('',#1413,2.54);
#360=VECTOR('',#1414,1.1684);
#361=VECTOR('',#1417,7.5438);
#362=VECTOR('',#1418,2.54);
#363=VECTOR('',#1419,7.5438);
#364=VECTOR('',#1422,2.54);
#365=VECTOR('',#1423,7.9502);
#366=VECTOR('',#1424,2.54);
#367=VECTOR('',#1425,7.9502);
#368=VECTOR('',#1428,1.1684);
#369=VECTOR('',#1429,2.54);
#370=VECTOR('',#1430,1.1684);
#371=VECTOR('',#1433,7.5438);
#372=VECTOR('',#1434,2.54);
#373=VECTOR('',#1435,7.5438);
#374=VECTOR('',#1438,1.1684);
#375=VECTOR('',#1439,2.54);
#376=VECTOR('',#1440,1.1684);
#377=VECTOR('',#1441,2.54);
#378=VECTOR('',#1444,1.1684);
#379=VECTOR('',#1445,2.54);
#380=VECTOR('',#1446,1.1684);
#381=VECTOR('',#1447,2.54);
#382=VECTOR('',#1450,7.9502);
#383=VECTOR('',#1451,2.54);
#384=VECTOR('',#1452,7.9502);
#385=VECTOR('',#1455,7.9502);
#386=VECTOR('',#1456,7.95019999999999);
#387=VECTOR('',#1457,2.54);
#388=VECTOR('',#1460,7.5438);
#389=VECTOR('',#1461,7.5438);
#390=VECTOR('',#1462,2.54);
#391=VECTOR('',#1465,7.5438);
#392=VECTOR('',#1466,2.54);
#393=VECTOR('',#1467,7.5438);
#394=VECTOR('',#1474,1.5875);
#395=VECTOR('',#1477,2.54);
#396=VECTOR('',#1480,1.5875);
#397=VECTOR('',#1483,2.54);
#398=VECTOR('',#1486,1.5875);
#399=VECTOR('',#1489,2.54);
#400=VECTOR('',#1492,19.05);
#401=VECTOR('',#1497,1.5875);
#402=VECTOR('',#1502,1.5875);
#403=VECTOR('',#1507,19.05);
#404=VECTOR('',#1510,2.54);
#405=VECTOR('',#1513,1.5875);
#406=VECTOR('',#1516,2.54);
#407=VECTOR('',#1519,1.5875);
#408=VECTOR('',#1522,2.54);
#409=VECTOR('',#1525,1.5875);
#410=VECTOR('',#1530,1.1684);
#411=VECTOR('',#1531,2.54);
#412=VECTOR('',#1532,1.1684);
#413=VECTOR('',#1533,2.54);
#414=VECTOR('',#1536,7.9502);
#415=VECTOR('',#1537,7.9502);
#416=VECTOR('',#1540,7.5438);
#417=VECTOR('',#1541,7.5438);
#418=VECTOR('',#1544,1.1684);
#419=VECTOR('',#1545,2.54);
#420=VECTOR('',#1546,1.1684);
#421=VECTOR('',#1547,2.54);
#422=VECTOR('',#1550,7.9502);
#423=VECTOR('',#1551,7.9502);
#424=VECTOR('',#1554,7.5438);
#425=VECTOR('',#1555,7.5438);
#426=VECTOR('',#1558,1.1684);
#427=VECTOR('',#1559,2.54);
#428=VECTOR('',#1560,1.1684);
#429=VECTOR('',#1561,2.54);
#430=VECTOR('',#1564,7.9502);
#431=VECTOR('',#1565,7.95019999999999);
#432=VECTOR('',#1568,7.5438);
#433=VECTOR('',#1569,7.5438);
#434=VECTOR('',#1572,15.9004);
#435=VECTOR('',#1575,7.95019999999999);
#436=VECTOR('',#1576,1.1684);
#437=VECTOR('',#1577,7.5438);
#438=VECTOR('',#1580,15.0876);
#439=VECTOR('',#1583,2.54);
#440=VECTOR('',#1584,7.9502);
#441=VECTOR('',#1585,2.54);
#442=VECTOR('',#1590,15.9004);
#443=VECTOR('',#1591,15.0876);
#444=VECTOR('',#1596,1.1684);
#445=VECTOR('',#1597,2.54);
#446=VECTOR('',#1600,19.05);
#447=VECTOR('',#1605,7.5438);
#448=VECTOR('',#1606,2.54);
#449=VECTOR('',#1609,19.05);
#450=VECTOR('',#1614,1.5875);
#451=VECTOR('',#1619,1.5875);
#452=VECTOR('',#1624,1.5875);
#453=VECTOR('',#1629,1.5875);
#454=VECTOR('',#1638,1.5875);
#455=VECTOR('',#1643,1.5875);
#456=VECTOR('',#1648,1.5875);
#457=VECTOR('',#1653,1.5875);
#458=VECTOR('',#1660,1.38356579788501);
#459=VECTOR('',#1663,1.38356579788501);
#460=VECTOR('',#1668,1.38356579788501);
#461=VECTOR('',#1671,1.38356579788501);
#462=VECTOR('',#1676,1.38356579788501);
#463=VECTOR('',#1679,1.38356579788501);
#464=VECTOR('',#1684,1.38356579788501);
#465=VECTOR('',#1687,1.38356579788501);
#466=VECTOR('',#1692,1.38356579788502);
#467=VECTOR('',#1695,1.38356579788501);
#468=VECTOR('',#1700,1.38356579788502);
#469=VECTOR('',#1703,1.38356579788501);
#470=VECTOR('',#1708,1.38356579788502);
#471=VECTOR('',#1711,1.38356579788501);
#472=VECTOR('',#1716,1.38356579788502);
#473=VECTOR('',#1719,1.38356579788502);
#474=VERTEX_POINT('',#1724);
#475=VERTEX_POINT('',#1725);
#476=VERTEX_POINT('',#1727);
#477=VERTEX_POINT('',#1729);
#478=VERTEX_POINT('',#1733);
#479=VERTEX_POINT('',#1734);
#480=VERTEX_POINT('',#1739);
#481=VERTEX_POINT('',#1740);
#482=VERTEX_POINT('',#1745);
#483=VERTEX_POINT('',#1746);
#484=VERTEX_POINT('',#1748);
#485=VERTEX_POINT('',#1750);
#486=VERTEX_POINT('',#1754);
#487=VERTEX_POINT('',#1756);
#488=VERTEX_POINT('',#1760);
#489=VERTEX_POINT('',#1762);
#490=VERTEX_POINT('',#1766);
#491=VERTEX_POINT('',#1767);
#492=VERTEX_POINT('',#1769);
#493=VERTEX_POINT('',#1771);
#494=VERTEX_POINT('',#1775);
#495=VERTEX_POINT('',#1777);
#496=VERTEX_POINT('',#1781);
#497=VERTEX_POINT('',#1783);
#498=VERTEX_POINT('',#1787);
#499=VERTEX_POINT('',#1788);
#500=VERTEX_POINT('',#1790);
#501=VERTEX_POINT('',#1792);
#502=VERTEX_POINT('',#1796);
#503=VERTEX_POINT('',#1798);
#504=VERTEX_POINT('',#1802);
#505=VERTEX_POINT('',#1804);
#506=VERTEX_POINT('',#1808);
#507=VERTEX_POINT('',#1809);
#508=VERTEX_POINT('',#1811);
#509=VERTEX_POINT('',#1813);
#510=VERTEX_POINT('',#1817);
#511=VERTEX_POINT('',#1818);
#512=VERTEX_POINT('',#1820);
#513=VERTEX_POINT('',#1822);
#514=VERTEX_POINT('',#1826);
#515=VERTEX_POINT('',#1828);
#516=VERTEX_POINT('',#1832);
#517=VERTEX_POINT('',#1834);
#518=VERTEX_POINT('',#1838);
#519=VERTEX_POINT('',#1840);
#520=VERTEX_POINT('',#1844);
#521=VERTEX_POINT('',#1846);
#522=VERTEX_POINT('',#1850);
#523=VERTEX_POINT('',#1852);
#524=VERTEX_POINT('',#1854);
#525=VERTEX_POINT('',#1856);
#526=VERTEX_POINT('',#1858);
#527=VERTEX_POINT('',#1860);
#528=VERTEX_POINT('',#1862);
#529=VERTEX_POINT('',#1864);
#530=VERTEX_POINT('',#1866);
#531=VERTEX_POINT('',#1868);
#532=VERTEX_POINT('',#1870);
#533=VERTEX_POINT('',#1872);
#534=VERTEX_POINT('',#1874);
#535=VERTEX_POINT('',#1876);
#536=VERTEX_POINT('',#1878);
#537=VERTEX_POINT('',#1881);
#538=VERTEX_POINT('',#1885);
#539=VERTEX_POINT('',#1887);
#540=VERTEX_POINT('',#1890);
#541=VERTEX_POINT('',#1892);
#542=VERTEX_POINT('',#1894);
#543=VERTEX_POINT('',#1896);
#544=VERTEX_POINT('',#1898);
#545=VERTEX_POINT('',#1900);
#546=VERTEX_POINT('',#1902);
#547=VERTEX_POINT('',#1904);
#548=VERTEX_POINT('',#1906);
#549=VERTEX_POINT('',#1908);
#550=VERTEX_POINT('',#1910);
#551=VERTEX_POINT('',#1912);
#552=VERTEX_POINT('',#1914);
#553=VERTEX_POINT('',#1916);
#554=VERTEX_POINT('',#1920);
#555=VERTEX_POINT('',#1921);
#556=VERTEX_POINT('',#1923);
#557=VERTEX_POINT('',#1925);
#558=VERTEX_POINT('',#1935);
#559=VERTEX_POINT('',#1936);
#560=VERTEX_POINT('',#1938);
#561=VERTEX_POINT('',#1940);
#562=VERTEX_POINT('',#1950);
#563=VERTEX_POINT('',#1951);
#564=VERTEX_POINT('',#1953);
#565=VERTEX_POINT('',#1955);
#566=VERTEX_POINT('',#1965);
#567=VERTEX_POINT('',#1967);
#568=VERTEX_POINT('',#1969);
#569=VERTEX_POINT('',#1971);
#570=VERTEX_POINT('',#1973);
#571=VERTEX_POINT('',#1975);
#572=VERTEX_POINT('',#1979);
#573=VERTEX_POINT('',#1981);
#574=VERTEX_POINT('',#1985);
#575=VERTEX_POINT('',#1988);
#576=VERTEX_POINT('',#1992);
#577=VERTEX_POINT('',#1997);
#578=VERTEX_POINT('',#2000);
#579=VERTEX_POINT('',#2005);
#580=VERTEX_POINT('',#2008);
#581=VERTEX_POINT('',#2009);
#582=VERTEX_POINT('',#2012);
#583=VERTEX_POINT('',#2014);
#584=VERTEX_POINT('',#2017);
#585=VERTEX_POINT('',#2019);
#586=VERTEX_POINT('',#2022);
#587=VERTEX_POINT('',#2024);
#588=VERTEX_POINT('',#2029);
#589=VERTEX_POINT('',#2031);
#590=VERTEX_POINT('',#2034);
#591=VERTEX_POINT('',#2036);
#592=VERTEX_POINT('',#2039);
#593=VERTEX_POINT('',#2041);
#594=VERTEX_POINT('',#2044);
#595=VERTEX_POINT('',#2046);
#596=EDGE_CURVE('',#474,#475,#194,.T.);
#597=EDGE_CURVE('',#474,#476,#195,.T.);
#598=EDGE_CURVE('',#476,#477,#196,.T.);
#599=EDGE_CURVE('',#475,#477,#197,.T.);
#600=EDGE_CURVE('',#478,#479,#198,.T.);
#601=EDGE_CURVE('',#479,#474,#199,.T.);
#602=EDGE_CURVE('',#475,#478,#200,.T.);
#603=EDGE_CURVE('',#480,#481,#201,.T.);
#604=EDGE_CURVE('',#481,#479,#202,.T.);
#605=EDGE_CURVE('',#480,#478,#203,.T.);
#606=EDGE_CURVE('',#482,#483,#204,.T.);
#607=EDGE_CURVE('',#483,#484,#205,.T.);
#608=EDGE_CURVE('',#485,#484,#206,.T.);
#609=EDGE_CURVE('',#485,#482,#207,.T.);
#610=EDGE_CURVE('',#484,#486,#208,.T.);
#611=EDGE_CURVE('',#486,#487,#209,.T.);
#612=EDGE_CURVE('',#487,#485,#210,.T.);
#613=EDGE_CURVE('',#486,#488,#211,.T.);
#614=EDGE_CURVE('',#488,#489,#212,.T.);
#615=EDGE_CURVE('',#489,#487,#213,.T.);
#616=EDGE_CURVE('',#490,#491,#214,.T.);
#617=EDGE_CURVE('',#491,#492,#215,.T.);
#618=EDGE_CURVE('',#493,#492,#216,.T.);
#619=EDGE_CURVE('',#493,#490,#217,.T.);
#620=EDGE_CURVE('',#492,#494,#218,.T.);
#621=EDGE_CURVE('',#494,#495,#219,.T.);
#622=EDGE_CURVE('',#495,#493,#220,.T.);
#623=EDGE_CURVE('',#494,#496,#221,.T.);
#624=EDGE_CURVE('',#496,#497,#222,.T.);
#625=EDGE_CURVE('',#497,#495,#223,.T.);
#626=EDGE_CURVE('',#498,#499,#224,.T.);
#627=EDGE_CURVE('',#499,#500,#225,.T.);
#628=EDGE_CURVE('',#501,#500,#226,.T.);
#629=EDGE_CURVE('',#501,#498,#227,.T.);
#630=EDGE_CURVE('',#500,#502,#228,.T.);
#631=EDGE_CURVE('',#502,#503,#229,.T.);
#632=EDGE_CURVE('',#503,#501,#230,.T.);
#633=EDGE_CURVE('',#502,#504,#231,.T.);
#634=EDGE_CURVE('',#504,#505,#232,.T.);
#635=EDGE_CURVE('',#505,#503,#233,.T.);
#636=EDGE_CURVE('',#506,#507,#234,.T.);
#637=EDGE_CURVE('',#506,#508,#235,.T.);
#638=EDGE_CURVE('',#509,#508,#236,.T.);
#639=EDGE_CURVE('',#509,#507,#237,.T.);
#640=EDGE_CURVE('',#510,#511,#238,.T.);
#641=EDGE_CURVE('',#510,#512,#239,.T.);
#642=EDGE_CURVE('',#512,#513,#240,.T.);
#643=EDGE_CURVE('',#513,#511,#241,.T.);
#644=EDGE_CURVE('',#514,#506,#242,.T.);
#645=EDGE_CURVE('',#514,#515,#243,.T.);
#646=EDGE_CURVE('',#508,#515,#244,.T.);
#647=EDGE_CURVE('',#511,#516,#245,.T.);
#648=EDGE_CURVE('',#513,#517,#246,.T.);
#649=EDGE_CURVE('',#517,#516,#247,.T.);
#650=EDGE_CURVE('',#507,#518,#248,.T.);
#651=EDGE_CURVE('',#519,#509,#249,.T.);
#652=EDGE_CURVE('',#519,#518,#250,.F.);
#653=EDGE_CURVE('',#520,#510,#251,.T.);
#654=EDGE_CURVE('',#520,#521,#252,.F.);
#655=EDGE_CURVE('',#512,#521,#253,.T.);
#656=EDGE_CURVE('',#518,#522,#18,.F.);
#657=EDGE_CURVE('',#523,#519,#19,.F.);
#658=EDGE_CURVE('',#524,#523,#254,.T.);
#659=EDGE_CURVE('',#525,#524,#20,.F.);
#660=EDGE_CURVE('',#526,#525,#255,.F.);
#661=EDGE_CURVE('',#527,#526,#21,.F.);
#662=EDGE_CURVE('',#528,#527,#256,.T.);
#663=EDGE_CURVE('',#529,#528,#22,.F.);
#664=EDGE_CURVE('',#530,#529,#257,.F.);
#665=EDGE_CURVE('',#531,#530,#23,.F.);
#666=EDGE_CURVE('',#532,#531,#258,.T.);
#667=EDGE_CURVE('',#533,#532,#24,.F.);
#668=EDGE_CURVE('',#534,#533,#259,.F.);
#669=EDGE_CURVE('',#535,#534,#25,.T.);
#670=EDGE_CURVE('',#536,#535,#260,.T.);
#671=EDGE_CURVE('',#521,#536,#26,.T.);
#672=EDGE_CURVE('',#537,#520,#27,.F.);
#673=EDGE_CURVE('',#522,#537,#261,.T.);
#674=EDGE_CURVE('',#514,#538,#28,.F.);
#675=EDGE_CURVE('',#538,#539,#262,.T.);
#676=EDGE_CURVE('',#539,#516,#29,.F.);
#677=EDGE_CURVE('',#540,#517,#30,.F.);
#678=EDGE_CURVE('',#541,#540,#263,.F.);
#679=EDGE_CURVE('',#542,#541,#31,.F.);
#680=EDGE_CURVE('',#543,#542,#264,.T.);
#681=EDGE_CURVE('',#543,#544,#32,.F.);
#682=EDGE_CURVE('',#544,#545,#265,.T.);
#683=EDGE_CURVE('',#545,#546,#33,.F.);
#684=EDGE_CURVE('',#547,#546,#266,.T.);
#685=EDGE_CURVE('',#547,#548,#34,.F.);
#686=EDGE_CURVE('',#548,#549,#267,.T.);
#687=EDGE_CURVE('',#549,#550,#35,.F.);
#688=EDGE_CURVE('',#551,#550,#268,.T.);
#689=EDGE_CURVE('',#551,#552,#36,.F.);
#690=EDGE_CURVE('',#552,#553,#269,.T.);
#691=EDGE_CURVE('',#553,#515,#37,.F.);
#692=EDGE_CURVE('',#554,#555,#270,.T.);
#693=EDGE_CURVE('',#554,#556,#271,.T.);
#694=EDGE_CURVE('',#557,#556,#272,.T.);
#695=EDGE_CURVE('',#557,#555,#273,.T.);
#696=EDGE_CURVE('',#551,#554,#274,.T.);
#697=EDGE_CURVE('',#556,#550,#275,.T.);
#698=EDGE_CURVE('',#555,#525,#276,.T.);
#699=EDGE_CURVE('',#526,#557,#277,.T.);
#700=EDGE_CURVE('',#558,#559,#278,.T.);
#701=EDGE_CURVE('',#558,#560,#279,.T.);
#702=EDGE_CURVE('',#561,#560,#280,.T.);
#703=EDGE_CURVE('',#561,#559,#281,.T.);
#704=EDGE_CURVE('',#547,#558,#282,.T.);
#705=EDGE_CURVE('',#560,#546,#283,.T.);
#706=EDGE_CURVE('',#559,#529,#284,.T.);
#707=EDGE_CURVE('',#530,#561,#285,.T.);
#708=EDGE_CURVE('',#562,#563,#286,.T.);
#709=EDGE_CURVE('',#562,#564,#287,.T.);
#710=EDGE_CURVE('',#564,#565,#288,.T.);
#711=EDGE_CURVE('',#565,#563,#289,.T.);
#712=EDGE_CURVE('',#543,#562,#290,.T.);
#713=EDGE_CURVE('',#564,#542,#291,.T.);
#714=EDGE_CURVE('',#563,#533,#292,.T.);
#715=EDGE_CURVE('',#565,#534,#293,.T.);
#716=EDGE_CURVE('',#541,#566,#294,.T.);
#717=EDGE_CURVE('',#566,#567,#38,.F.);
#718=EDGE_CURVE('',#568,#567,#295,.T.);
#719=EDGE_CURVE('',#569,#568,#296,.T.);
#720=EDGE_CURVE('',#570,#569,#297,.T.);
#721=EDGE_CURVE('',#570,#571,#39,.T.);
#722=EDGE_CURVE('',#535,#571,#298,.T.);
#723=EDGE_CURVE('',#567,#572,#299,.T.);
#724=EDGE_CURVE('',#572,#573,#300,.T.);
#725=EDGE_CURVE('',#568,#573,#301,.T.);
#726=EDGE_CURVE('',#477,#574,#40,.F.);
#727=EDGE_CURVE('',#574,#540,#302,.T.);
#728=EDGE_CURVE('',#536,#575,#303,.T.);
#729=EDGE_CURVE('',#575,#480,#41,.T.);
#730=EDGE_CURVE('',#573,#576,#304,.T.);
#731=EDGE_CURVE('',#576,#569,#305,.T.);
#732=EDGE_CURVE('',#574,#566,#306,.F.);
#733=EDGE_CURVE('',#577,#577,#42,.T.);
#734=EDGE_CURVE('',#576,#578,#307,.T.);
#735=EDGE_CURVE('',#578,#570,#308,.T.);
#736=EDGE_CURVE('',#571,#575,#309,.F.);
#737=EDGE_CURVE('',#579,#579,#43,.T.);
#738=EDGE_CURVE('',#580,#581,#310,.T.);
#739=EDGE_CURVE('',#581,#481,#44,.F.);
#740=EDGE_CURVE('',#578,#582,#45,.F.);
#741=EDGE_CURVE('',#582,#583,#311,.T.);
#742=EDGE_CURVE('',#583,#505,#46,.F.);
#743=EDGE_CURVE('',#504,#584,#47,.F.);
#744=EDGE_CURVE('',#584,#585,#312,.T.);
#745=EDGE_CURVE('',#585,#497,#48,.F.);
#746=EDGE_CURVE('',#496,#586,#49,.F.);
#747=EDGE_CURVE('',#586,#587,#313,.T.);
#748=EDGE_CURVE('',#587,#489,#50,.F.);
#749=EDGE_CURVE('',#488,#580,#51,.F.);
#750=EDGE_CURVE('',#588,#476,#52,.F.);
#751=EDGE_CURVE('',#589,#588,#314,.F.);
#752=EDGE_CURVE('',#483,#589,#53,.F.);
#753=EDGE_CURVE('',#590,#482,#54,.F.);
#754=EDGE_CURVE('',#591,#590,#315,.F.);
#755=EDGE_CURVE('',#491,#591,#55,.F.);
#756=EDGE_CURVE('',#592,#490,#56,.F.);
#757=EDGE_CURVE('',#593,#592,#316,.F.);
#758=EDGE_CURVE('',#499,#593,#57,.F.);
#759=EDGE_CURVE('',#594,#498,#58,.F.);
#760=EDGE_CURVE('',#595,#594,#317,.F.);
#761=EDGE_CURVE('',#572,#595,#59,.F.);
#762=EDGE_CURVE('',#532,#544,#318,.T.);
#763=EDGE_CURVE('',#531,#545,#319,.T.);
#764=EDGE_CURVE('',#528,#548,#320,.T.);
#765=EDGE_CURVE('',#527,#549,#321,.T.);
#766=EDGE_CURVE('',#524,#552,#322,.T.);
#767=EDGE_CURVE('',#523,#553,#323,.T.);
#768=EDGE_CURVE('',#522,#538,#324,.T.);
#769=EDGE_CURVE('',#537,#539,#325,.T.);
#770=EDGE_CURVE('',#583,#594,#326,.T.);
#771=EDGE_CURVE('',#582,#595,#327,.T.);
#772=EDGE_CURVE('',#585,#592,#328,.T.);
#773=EDGE_CURVE('',#584,#593,#329,.T.);
#774=EDGE_CURVE('',#587,#590,#330,.T.);
#775=EDGE_CURVE('',#586,#591,#331,.T.);
#776=EDGE_CURVE('',#581,#588,#332,.T.);
#777=EDGE_CURVE('',#580,#589,#333,.T.);
#778=ORIENTED_EDGE('',*,*,#596,.F.);
#779=ORIENTED_EDGE('',*,*,#597,.T.);
#780=ORIENTED_EDGE('',*,*,#598,.T.);
#781=ORIENTED_EDGE('',*,*,#599,.F.);
#782=ORIENTED_EDGE('',*,*,#600,.T.);
#783=ORIENTED_EDGE('',*,*,#601,.T.);
#784=ORIENTED_EDGE('',*,*,#596,.T.);
#785=ORIENTED_EDGE('',*,*,#602,.T.);
#786=ORIENTED_EDGE('',*,*,#603,.T.);
#787=ORIENTED_EDGE('',*,*,#604,.T.);
#788=ORIENTED_EDGE('',*,*,#600,.F.);
#789=ORIENTED_EDGE('',*,*,#605,.F.);
#790=ORIENTED_EDGE('',*,*,#606,.T.);
#791=ORIENTED_EDGE('',*,*,#607,.T.);
#792=ORIENTED_EDGE('',*,*,#608,.F.);
#793=ORIENTED_EDGE('',*,*,#609,.T.);
#794=ORIENTED_EDGE('',*,*,#608,.T.);
#795=ORIENTED_EDGE('',*,*,#610,.T.);
#796=ORIENTED_EDGE('',*,*,#611,.T.);
#797=ORIENTED_EDGE('',*,*,#612,.T.);
#798=ORIENTED_EDGE('',*,*,#611,.F.);
#799=ORIENTED_EDGE('',*,*,#613,.T.);
#800=ORIENTED_EDGE('',*,*,#614,.T.);
#801=ORIENTED_EDGE('',*,*,#615,.T.);
#802=ORIENTED_EDGE('',*,*,#616,.T.);
#803=ORIENTED_EDGE('',*,*,#617,.T.);
#804=ORIENTED_EDGE('',*,*,#618,.F.);
#805=ORIENTED_EDGE('',*,*,#619,.T.);
#806=ORIENTED_EDGE('',*,*,#618,.T.);
#807=ORIENTED_EDGE('',*,*,#620,.T.);
#808=ORIENTED_EDGE('',*,*,#621,.T.);
#809=ORIENTED_EDGE('',*,*,#622,.T.);
#810=ORIENTED_EDGE('',*,*,#621,.F.);
#811=ORIENTED_EDGE('',*,*,#623,.T.);
#812=ORIENTED_EDGE('',*,*,#624,.T.);
#813=ORIENTED_EDGE('',*,*,#625,.T.);
#814=ORIENTED_EDGE('',*,*,#626,.T.);
#815=ORIENTED_EDGE('',*,*,#627,.T.);
#816=ORIENTED_EDGE('',*,*,#628,.F.);
#817=ORIENTED_EDGE('',*,*,#629,.T.);
#818=ORIENTED_EDGE('',*,*,#628,.T.);
#819=ORIENTED_EDGE('',*,*,#630,.T.);
#820=ORIENTED_EDGE('',*,*,#631,.T.);
#821=ORIENTED_EDGE('',*,*,#632,.T.);
#822=ORIENTED_EDGE('',*,*,#631,.F.);
#823=ORIENTED_EDGE('',*,*,#633,.T.);
#824=ORIENTED_EDGE('',*,*,#634,.T.);
#825=ORIENTED_EDGE('',*,*,#635,.T.);
#826=ORIENTED_EDGE('',*,*,#636,.F.);
#827=ORIENTED_EDGE('',*,*,#637,.T.);
#828=ORIENTED_EDGE('',*,*,#638,.F.);
#829=ORIENTED_EDGE('',*,*,#639,.T.);
#830=ORIENTED_EDGE('',*,*,#640,.F.);
#831=ORIENTED_EDGE('',*,*,#641,.T.);
#832=ORIENTED_EDGE('',*,*,#642,.T.);
#833=ORIENTED_EDGE('',*,*,#643,.T.);
#834=ORIENTED_EDGE('',*,*,#644,.F.);
#835=ORIENTED_EDGE('',*,*,#645,.T.);
#836=ORIENTED_EDGE('',*,*,#646,.F.);
#837=ORIENTED_EDGE('',*,*,#637,.F.);
#838=ORIENTED_EDGE('',*,*,#647,.F.);
#839=ORIENTED_EDGE('',*,*,#643,.F.);
#840=ORIENTED_EDGE('',*,*,#648,.T.);
#841=ORIENTED_EDGE('',*,*,#649,.T.);
#842=ORIENTED_EDGE('',*,*,#650,.F.);
#843=ORIENTED_EDGE('',*,*,#639,.F.);
#844=ORIENTED_EDGE('',*,*,#651,.F.);
#845=ORIENTED_EDGE('',*,*,#652,.T.);
#846=ORIENTED_EDGE('',*,*,#653,.F.);
#847=ORIENTED_EDGE('',*,*,#654,.T.);
#848=ORIENTED_EDGE('',*,*,#655,.F.);
#849=ORIENTED_EDGE('',*,*,#641,.F.);
#850=ORIENTED_EDGE('',*,*,#656,.F.);
#851=ORIENTED_EDGE('',*,*,#652,.F.);
#852=ORIENTED_EDGE('',*,*,#657,.F.);
#853=ORIENTED_EDGE('',*,*,#658,.F.);
#854=ORIENTED_EDGE('',*,*,#659,.F.);
#855=ORIENTED_EDGE('',*,*,#660,.F.);
#856=ORIENTED_EDGE('',*,*,#661,.F.);
#857=ORIENTED_EDGE('',*,*,#662,.F.);
#858=ORIENTED_EDGE('',*,*,#663,.F.);
#859=ORIENTED_EDGE('',*,*,#664,.F.);
#860=ORIENTED_EDGE('',*,*,#665,.F.);
#861=ORIENTED_EDGE('',*,*,#666,.F.);
#862=ORIENTED_EDGE('',*,*,#667,.F.);
#863=ORIENTED_EDGE('',*,*,#668,.F.);
#864=ORIENTED_EDGE('',*,*,#669,.F.);
#865=ORIENTED_EDGE('',*,*,#670,.F.);
#866=ORIENTED_EDGE('',*,*,#671,.F.);
#867=ORIENTED_EDGE('',*,*,#654,.F.);
#868=ORIENTED_EDGE('',*,*,#672,.F.);
#869=ORIENTED_EDGE('',*,*,#673,.F.);
#870=ORIENTED_EDGE('',*,*,#645,.F.);
#871=ORIENTED_EDGE('',*,*,#674,.T.);
#872=ORIENTED_EDGE('',*,*,#675,.T.);
#873=ORIENTED_EDGE('',*,*,#676,.T.);
#874=ORIENTED_EDGE('',*,*,#649,.F.);
#875=ORIENTED_EDGE('',*,*,#677,.F.);
#876=ORIENTED_EDGE('',*,*,#678,.F.);
#877=ORIENTED_EDGE('',*,*,#679,.F.);
#878=ORIENTED_EDGE('',*,*,#680,.F.);
#879=ORIENTED_EDGE('',*,*,#681,.T.);
#880=ORIENTED_EDGE('',*,*,#682,.T.);
#881=ORIENTED_EDGE('',*,*,#683,.T.);
#882=ORIENTED_EDGE('',*,*,#684,.F.);
#883=ORIENTED_EDGE('',*,*,#685,.T.);
#884=ORIENTED_EDGE('',*,*,#686,.T.);
#885=ORIENTED_EDGE('',*,*,#687,.T.);
#886=ORIENTED_EDGE('',*,*,#688,.F.);
#887=ORIENTED_EDGE('',*,*,#689,.T.);
#888=ORIENTED_EDGE('',*,*,#690,.T.);
#889=ORIENTED_EDGE('',*,*,#691,.T.);
#890=ORIENTED_EDGE('',*,*,#692,.F.);
#891=ORIENTED_EDGE('',*,*,#693,.T.);
#892=ORIENTED_EDGE('',*,*,#694,.F.);
#893=ORIENTED_EDGE('',*,*,#695,.T.);
#894=ORIENTED_EDGE('',*,*,#696,.F.);
#895=ORIENTED_EDGE('',*,*,#688,.T.);
#896=ORIENTED_EDGE('',*,*,#697,.F.);
#897=ORIENTED_EDGE('',*,*,#693,.F.);
#898=ORIENTED_EDGE('',*,*,#698,.F.);
#899=ORIENTED_EDGE('',*,*,#695,.F.);
#900=ORIENTED_EDGE('',*,*,#699,.F.);
#901=ORIENTED_EDGE('',*,*,#660,.T.);
#902=ORIENTED_EDGE('',*,*,#700,.F.);
#903=ORIENTED_EDGE('',*,*,#701,.T.);
#904=ORIENTED_EDGE('',*,*,#702,.F.);
#905=ORIENTED_EDGE('',*,*,#703,.T.);
#906=ORIENTED_EDGE('',*,*,#704,.F.);
#907=ORIENTED_EDGE('',*,*,#684,.T.);
#908=ORIENTED_EDGE('',*,*,#705,.F.);
#909=ORIENTED_EDGE('',*,*,#701,.F.);
#910=ORIENTED_EDGE('',*,*,#706,.F.);
#911=ORIENTED_EDGE('',*,*,#703,.F.);
#912=ORIENTED_EDGE('',*,*,#707,.F.);
#913=ORIENTED_EDGE('',*,*,#664,.T.);
#914=ORIENTED_EDGE('',*,*,#708,.F.);
#915=ORIENTED_EDGE('',*,*,#709,.T.);
#916=ORIENTED_EDGE('',*,*,#710,.T.);
#917=ORIENTED_EDGE('',*,*,#711,.T.);
#918=ORIENTED_EDGE('',*,*,#712,.F.);
#919=ORIENTED_EDGE('',*,*,#680,.T.);
#920=ORIENTED_EDGE('',*,*,#713,.F.);
#921=ORIENTED_EDGE('',*,*,#709,.F.);
#922=ORIENTED_EDGE('',*,*,#714,.F.);
#923=ORIENTED_EDGE('',*,*,#711,.F.);
#924=ORIENTED_EDGE('',*,*,#715,.T.);
#925=ORIENTED_EDGE('',*,*,#668,.T.);
#926=ORIENTED_EDGE('',*,*,#716,.T.);
#927=ORIENTED_EDGE('',*,*,#717,.T.);
#928=ORIENTED_EDGE('',*,*,#718,.F.);
#929=ORIENTED_EDGE('',*,*,#719,.F.);
#930=ORIENTED_EDGE('',*,*,#720,.F.);
#931=ORIENTED_EDGE('',*,*,#721,.T.);
#932=ORIENTED_EDGE('',*,*,#722,.F.);
#933=ORIENTED_EDGE('',*,*,#669,.T.);
#934=ORIENTED_EDGE('',*,*,#715,.F.);
#935=ORIENTED_EDGE('',*,*,#710,.F.);
#936=ORIENTED_EDGE('',*,*,#713,.T.);
#937=ORIENTED_EDGE('',*,*,#679,.T.);
#938=ORIENTED_EDGE('',*,*,#723,.T.);
#939=ORIENTED_EDGE('',*,*,#724,.T.);
#940=ORIENTED_EDGE('',*,*,#725,.F.);
#941=ORIENTED_EDGE('',*,*,#718,.T.);
#942=ORIENTED_EDGE('',*,*,#599,.T.);
#943=ORIENTED_EDGE('',*,*,#726,.T.);
#944=ORIENTED_EDGE('',*,*,#727,.T.);
#945=ORIENTED_EDGE('',*,*,#677,.T.);
#946=ORIENTED_EDGE('',*,*,#648,.F.);
#947=ORIENTED_EDGE('',*,*,#642,.F.);
#948=ORIENTED_EDGE('',*,*,#655,.T.);
#949=ORIENTED_EDGE('',*,*,#671,.T.);
#950=ORIENTED_EDGE('',*,*,#728,.T.);
#951=ORIENTED_EDGE('',*,*,#729,.T.);
#952=ORIENTED_EDGE('',*,*,#605,.T.);
#953=ORIENTED_EDGE('',*,*,#602,.F.);
#954=ORIENTED_EDGE('',*,*,#725,.T.);
#955=ORIENTED_EDGE('',*,*,#730,.T.);
#956=ORIENTED_EDGE('',*,*,#731,.T.);
#957=ORIENTED_EDGE('',*,*,#719,.T.);
#958=ORIENTED_EDGE('',*,*,#727,.F.);
#959=ORIENTED_EDGE('',*,*,#732,.T.);
#960=ORIENTED_EDGE('',*,*,#716,.F.);
#961=ORIENTED_EDGE('',*,*,#678,.T.);
#962=ORIENTED_EDGE('',*,*,#733,.T.);
#963=ORIENTED_EDGE('',*,*,#731,.F.);
#964=ORIENTED_EDGE('',*,*,#734,.T.);
#965=ORIENTED_EDGE('',*,*,#735,.T.);
#966=ORIENTED_EDGE('',*,*,#720,.T.);
#967=ORIENTED_EDGE('',*,*,#722,.T.);
#968=ORIENTED_EDGE('',*,*,#736,.T.);
#969=ORIENTED_EDGE('',*,*,#728,.F.);
#970=ORIENTED_EDGE('',*,*,#670,.T.);
#971=ORIENTED_EDGE('',*,*,#737,.F.);
#972=ORIENTED_EDGE('',*,*,#738,.T.);
#973=ORIENTED_EDGE('',*,*,#739,.T.);
#974=ORIENTED_EDGE('',*,*,#603,.F.);
#975=ORIENTED_EDGE('',*,*,#729,.F.);
#976=ORIENTED_EDGE('',*,*,#736,.F.);
#977=ORIENTED_EDGE('',*,*,#721,.F.);
#978=ORIENTED_EDGE('',*,*,#735,.F.);
#979=ORIENTED_EDGE('',*,*,#740,.T.);
#980=ORIENTED_EDGE('',*,*,#741,.T.);
#981=ORIENTED_EDGE('',*,*,#742,.T.);
#982=ORIENTED_EDGE('',*,*,#634,.F.);
#983=ORIENTED_EDGE('',*,*,#743,.T.);
#984=ORIENTED_EDGE('',*,*,#744,.T.);
#985=ORIENTED_EDGE('',*,*,#745,.T.);
#986=ORIENTED_EDGE('',*,*,#624,.F.);
#987=ORIENTED_EDGE('',*,*,#746,.T.);
#988=ORIENTED_EDGE('',*,*,#747,.T.);
#989=ORIENTED_EDGE('',*,*,#748,.T.);
#990=ORIENTED_EDGE('',*,*,#614,.F.);
#991=ORIENTED_EDGE('',*,*,#749,.T.);
#992=ORIENTED_EDGE('',*,*,#750,.F.);
#993=ORIENTED_EDGE('',*,*,#751,.F.);
#994=ORIENTED_EDGE('',*,*,#752,.F.);
#995=ORIENTED_EDGE('',*,*,#606,.F.);
#996=ORIENTED_EDGE('',*,*,#753,.F.);
#997=ORIENTED_EDGE('',*,*,#754,.F.);
#998=ORIENTED_EDGE('',*,*,#755,.F.);
#999=ORIENTED_EDGE('',*,*,#616,.F.);
#1000=ORIENTED_EDGE('',*,*,#756,.F.);
#1001=ORIENTED_EDGE('',*,*,#757,.F.);
#1002=ORIENTED_EDGE('',*,*,#758,.F.);
#1003=ORIENTED_EDGE('',*,*,#626,.F.);
#1004=ORIENTED_EDGE('',*,*,#759,.F.);
#1005=ORIENTED_EDGE('',*,*,#760,.F.);
#1006=ORIENTED_EDGE('',*,*,#761,.F.);
#1007=ORIENTED_EDGE('',*,*,#723,.F.);
#1008=ORIENTED_EDGE('',*,*,#717,.F.);
#1009=ORIENTED_EDGE('',*,*,#732,.F.);
#1010=ORIENTED_EDGE('',*,*,#726,.F.);
#1011=ORIENTED_EDGE('',*,*,#598,.F.);
#1012=ORIENTED_EDGE('',*,*,#733,.F.);
#1013=ORIENTED_EDGE('',*,*,#737,.T.);
#1014=ORIENTED_EDGE('',*,*,#714,.T.);
#1015=ORIENTED_EDGE('',*,*,#667,.T.);
#1016=ORIENTED_EDGE('',*,*,#762,.T.);
#1017=ORIENTED_EDGE('',*,*,#681,.F.);
#1018=ORIENTED_EDGE('',*,*,#712,.T.);
#1019=ORIENTED_EDGE('',*,*,#708,.T.);
#1020=ORIENTED_EDGE('',*,*,#666,.T.);
#1021=ORIENTED_EDGE('',*,*,#763,.T.);
#1022=ORIENTED_EDGE('',*,*,#682,.F.);
#1023=ORIENTED_EDGE('',*,*,#762,.F.);
#1024=ORIENTED_EDGE('',*,*,#707,.T.);
#1025=ORIENTED_EDGE('',*,*,#702,.T.);
#1026=ORIENTED_EDGE('',*,*,#705,.T.);
#1027=ORIENTED_EDGE('',*,*,#683,.F.);
#1028=ORIENTED_EDGE('',*,*,#763,.F.);
#1029=ORIENTED_EDGE('',*,*,#665,.T.);
#1030=ORIENTED_EDGE('',*,*,#706,.T.);
#1031=ORIENTED_EDGE('',*,*,#663,.T.);
#1032=ORIENTED_EDGE('',*,*,#764,.T.);
#1033=ORIENTED_EDGE('',*,*,#685,.F.);
#1034=ORIENTED_EDGE('',*,*,#704,.T.);
#1035=ORIENTED_EDGE('',*,*,#700,.T.);
#1036=ORIENTED_EDGE('',*,*,#662,.T.);
#1037=ORIENTED_EDGE('',*,*,#765,.T.);
#1038=ORIENTED_EDGE('',*,*,#686,.F.);
#1039=ORIENTED_EDGE('',*,*,#764,.F.);
#1040=ORIENTED_EDGE('',*,*,#699,.T.);
#1041=ORIENTED_EDGE('',*,*,#694,.T.);
#1042=ORIENTED_EDGE('',*,*,#697,.T.);
#1043=ORIENTED_EDGE('',*,*,#687,.F.);
#1044=ORIENTED_EDGE('',*,*,#765,.F.);
#1045=ORIENTED_EDGE('',*,*,#661,.T.);
#1046=ORIENTED_EDGE('',*,*,#698,.T.);
#1047=ORIENTED_EDGE('',*,*,#659,.T.);
#1048=ORIENTED_EDGE('',*,*,#766,.T.);
#1049=ORIENTED_EDGE('',*,*,#689,.F.);
#1050=ORIENTED_EDGE('',*,*,#696,.T.);
#1051=ORIENTED_EDGE('',*,*,#692,.T.);
#1052=ORIENTED_EDGE('',*,*,#658,.T.);
#1053=ORIENTED_EDGE('',*,*,#767,.T.);
#1054=ORIENTED_EDGE('',*,*,#690,.F.);
#1055=ORIENTED_EDGE('',*,*,#766,.F.);
#1056=ORIENTED_EDGE('',*,*,#651,.T.);
#1057=ORIENTED_EDGE('',*,*,#638,.T.);
#1058=ORIENTED_EDGE('',*,*,#646,.T.);
#1059=ORIENTED_EDGE('',*,*,#691,.F.);
#1060=ORIENTED_EDGE('',*,*,#767,.F.);
#1061=ORIENTED_EDGE('',*,*,#657,.T.);
#1062=ORIENTED_EDGE('',*,*,#650,.T.);
#1063=ORIENTED_EDGE('',*,*,#656,.T.);
#1064=ORIENTED_EDGE('',*,*,#768,.T.);
#1065=ORIENTED_EDGE('',*,*,#674,.F.);
#1066=ORIENTED_EDGE('',*,*,#644,.T.);
#1067=ORIENTED_EDGE('',*,*,#636,.T.);
#1068=ORIENTED_EDGE('',*,*,#673,.T.);
#1069=ORIENTED_EDGE('',*,*,#769,.T.);
#1070=ORIENTED_EDGE('',*,*,#675,.F.);
#1071=ORIENTED_EDGE('',*,*,#768,.F.);
#1072=ORIENTED_EDGE('',*,*,#653,.T.);
#1073=ORIENTED_EDGE('',*,*,#640,.T.);
#1074=ORIENTED_EDGE('',*,*,#647,.T.);
#1075=ORIENTED_EDGE('',*,*,#676,.F.);
#1076=ORIENTED_EDGE('',*,*,#769,.F.);
#1077=ORIENTED_EDGE('',*,*,#672,.T.);
#1078=ORIENTED_EDGE('',*,*,#742,.F.);
#1079=ORIENTED_EDGE('',*,*,#770,.T.);
#1080=ORIENTED_EDGE('',*,*,#759,.T.);
#1081=ORIENTED_EDGE('',*,*,#629,.F.);
#1082=ORIENTED_EDGE('',*,*,#632,.F.);
#1083=ORIENTED_EDGE('',*,*,#635,.F.);
#1084=ORIENTED_EDGE('',*,*,#771,.T.);
#1085=ORIENTED_EDGE('',*,*,#760,.T.);
#1086=ORIENTED_EDGE('',*,*,#770,.F.);
#1087=ORIENTED_EDGE('',*,*,#741,.F.);
#1088=ORIENTED_EDGE('',*,*,#730,.F.);
#1089=ORIENTED_EDGE('',*,*,#724,.F.);
#1090=ORIENTED_EDGE('',*,*,#761,.T.);
#1091=ORIENTED_EDGE('',*,*,#771,.F.);
#1092=ORIENTED_EDGE('',*,*,#740,.F.);
#1093=ORIENTED_EDGE('',*,*,#734,.F.);
#1094=ORIENTED_EDGE('',*,*,#745,.F.);
#1095=ORIENTED_EDGE('',*,*,#772,.T.);
#1096=ORIENTED_EDGE('',*,*,#756,.T.);
#1097=ORIENTED_EDGE('',*,*,#619,.F.);
#1098=ORIENTED_EDGE('',*,*,#622,.F.);
#1099=ORIENTED_EDGE('',*,*,#625,.F.);
#1100=ORIENTED_EDGE('',*,*,#773,.T.);
#1101=ORIENTED_EDGE('',*,*,#757,.T.);
#1102=ORIENTED_EDGE('',*,*,#772,.F.);
#1103=ORIENTED_EDGE('',*,*,#744,.F.);
#1104=ORIENTED_EDGE('',*,*,#630,.F.);
#1105=ORIENTED_EDGE('',*,*,#627,.F.);
#1106=ORIENTED_EDGE('',*,*,#758,.T.);
#1107=ORIENTED_EDGE('',*,*,#773,.F.);
#1108=ORIENTED_EDGE('',*,*,#743,.F.);
#1109=ORIENTED_EDGE('',*,*,#633,.F.);
#1110=ORIENTED_EDGE('',*,*,#748,.F.);
#1111=ORIENTED_EDGE('',*,*,#774,.T.);
#1112=ORIENTED_EDGE('',*,*,#753,.T.);
#1113=ORIENTED_EDGE('',*,*,#609,.F.);
#1114=ORIENTED_EDGE('',*,*,#612,.F.);
#1115=ORIENTED_EDGE('',*,*,#615,.F.);
#1116=ORIENTED_EDGE('',*,*,#775,.T.);
#1117=ORIENTED_EDGE('',*,*,#754,.T.);
#1118=ORIENTED_EDGE('',*,*,#774,.F.);
#1119=ORIENTED_EDGE('',*,*,#747,.F.);
#1120=ORIENTED_EDGE('',*,*,#620,.F.);
#1121=ORIENTED_EDGE('',*,*,#617,.F.);
#1122=ORIENTED_EDGE('',*,*,#755,.T.);
#1123=ORIENTED_EDGE('',*,*,#775,.F.);
#1124=ORIENTED_EDGE('',*,*,#746,.F.);
#1125=ORIENTED_EDGE('',*,*,#623,.F.);
#1126=ORIENTED_EDGE('',*,*,#739,.F.);
#1127=ORIENTED_EDGE('',*,*,#776,.T.);
#1128=ORIENTED_EDGE('',*,*,#750,.T.);
#1129=ORIENTED_EDGE('',*,*,#597,.F.);
#1130=ORIENTED_EDGE('',*,*,#601,.F.);
#1131=ORIENTED_EDGE('',*,*,#604,.F.);
#1132=ORIENTED_EDGE('',*,*,#777,.T.);
#1133=ORIENTED_EDGE('',*,*,#751,.T.);
#1134=ORIENTED_EDGE('',*,*,#776,.F.);
#1135=ORIENTED_EDGE('',*,*,#738,.F.);
#1136=ORIENTED_EDGE('',*,*,#610,.F.);
#1137=ORIENTED_EDGE('',*,*,#607,.F.);
#1138=ORIENTED_EDGE('',*,*,#752,.T.);
#1139=ORIENTED_EDGE('',*,*,#777,.F.);
#1140=ORIENTED_EDGE('',*,*,#749,.F.);
#1141=ORIENTED_EDGE('',*,*,#613,.F.);
#1142=PLANE('',#1265);
#1143=PLANE('',#1266);
#1144=PLANE('',#1267);
#1145=PLANE('',#1268);
#1146=PLANE('',#1269);
#1147=PLANE('',#1270);
#1148=PLANE('',#1271);
#1149=PLANE('',#1272);
#1150=PLANE('',#1273);
#1151=PLANE('',#1274);
#1152=PLANE('',#1275);
#1153=PLANE('',#1276);
#1154=PLANE('',#1277);
#1155=PLANE('',#1278);
#1156=PLANE('',#1279);
#1157=PLANE('',#1280);
#1158=PLANE('',#1281);
#1159=PLANE('',#1282);
#1160=PLANE('',#1305);
#1161=PLANE('',#1306);
#1162=PLANE('',#1307);
#1163=PLANE('',#1308);
#1164=PLANE('',#1309);
#1165=PLANE('',#1310);
#1166=PLANE('',#1311);
#1167=PLANE('',#1312);
#1168=PLANE('',#1313);
#1169=PLANE('',#1314);
#1170=PLANE('',#1317);
#1171=PLANE('',#1318);
#1172=PLANE('',#1321);
#1173=PLANE('',#1322);
#1174=PLANE('',#1324);
#1175=PLANE('',#1325);
#1176=PLANE('',#1346);
#1177=PLANE('',#1347);
#1178=PLANE('',#1348);
#1179=PLANE('',#1349);
#1180=PLANE('',#1350);
#1181=PLANE('',#1351);
#1182=PLANE('',#1352);
#1183=PLANE('',#1353);
#1184=PLANE('',#1354);
#1185=PLANE('',#1355);
#1186=PLANE('',#1356);
#1187=PLANE('',#1357);
#1188=PLANE('',#1358);
#1189=PLANE('',#1359);
#1190=PLANE('',#1360);
#1191=PLANE('',#1361);
#1192=PLANE('',#1362);
#1193=PLANE('',#1363);
#1194=PLANE('',#1364);
#1195=PLANE('',#1365);
#1196=PLANE('',#1366);
#1197=PLANE('',#1367);
#1198=PLANE('',#1368);
#1199=PLANE('',#1369);
#1200=ADVANCED_FACE('',(#65),#1142,.F.);
#1201=ADVANCED_FACE('',(#66),#1143,.F.);
#1202=ADVANCED_FACE('',(#67),#1144,.F.);
#1203=ADVANCED_FACE('',(#68),#1145,.F.);
#1204=ADVANCED_FACE('',(#69),#1146,.F.);
#1205=ADVANCED_FACE('',(#70),#1147,.F.);
#1206=ADVANCED_FACE('',(#71),#1148,.F.);
#1207=ADVANCED_FACE('',(#72),#1149,.F.);
#1208=ADVANCED_FACE('',(#73),#1150,.F.);
#1209=ADVANCED_FACE('',(#74),#1151,.F.);
#1210=ADVANCED_FACE('',(#75),#1152,.F.);
#1211=ADVANCED_FACE('',(#76),#1153,.F.);
#1212=ADVANCED_FACE('',(#77),#1154,.F.);
#1213=ADVANCED_FACE('',(#78),#1155,.F.);
#1214=ADVANCED_FACE('',(#79),#1156,.F.);
#1215=ADVANCED_FACE('',(#80),#1157,.F.);
#1216=ADVANCED_FACE('',(#81),#1158,.F.);
#1217=ADVANCED_FACE('',(#82),#1159,.F.);
#1218=ADVANCED_FACE('',(#83),#60,.F.);
#1219=ADVANCED_FACE('',(#84),#61,.T.);
#1220=ADVANCED_FACE('',(#85),#1160,.F.);
#1221=ADVANCED_FACE('',(#86),#1161,.F.);
#1222=ADVANCED_FACE('',(#87),#1162,.F.);
#1223=ADVANCED_FACE('',(#88),#1163,.F.);
#1224=ADVANCED_FACE('',(#89),#1164,.F.);
#1225=ADVANCED_FACE('',(#90),#1165,.F.);
#1226=ADVANCED_FACE('',(#91),#1166,.F.);
#1227=ADVANCED_FACE('',(#92),#1167,.F.);
#1228=ADVANCED_FACE('',(#93),#1168,.F.);
#1229=ADVANCED_FACE('',(#94),#1169,.F.);
#1230=ADVANCED_FACE('',(#95),#1170,.F.);
#1231=ADVANCED_FACE('',(#96),#1171,.F.);
#1232=ADVANCED_FACE('',(#97),#1172,.F.);
#1233=ADVANCED_FACE('',(#98,#15),#1173,.T.);
#1234=ADVANCED_FACE('',(#99),#1174,.F.);
#1235=ADVANCED_FACE('',(#100,#16),#1175,.F.);
#1236=ADVANCED_FACE('',(#101),#62,.F.);
#1237=ADVANCED_FACE('',(#102),#63,.T.);
#1238=ADVANCED_FACE('',(#103,#17),#64,.F.);
#1239=ADVANCED_FACE('',(#104),#1176,.T.);
#1240=ADVANCED_FACE('',(#105),#1177,.T.);
#1241=ADVANCED_FACE('',(#106),#1178,.T.);
#1242=ADVANCED_FACE('',(#107),#1179,.T.);
#1243=ADVANCED_FACE('',(#108),#1180,.T.);
#1244=ADVANCED_FACE('',(#109),#1181,.T.);
#1245=ADVANCED_FACE('',(#110),#1182,.T.);
#1246=ADVANCED_FACE('',(#111),#1183,.T.);
#1247=ADVANCED_FACE('',(#112),#1184,.T.);
#1248=ADVANCED_FACE('',(#113),#1185,.T.);
#1249=ADVANCED_FACE('',(#114),#1186,.T.);
#1250=ADVANCED_FACE('',(#115),#1187,.T.);
#1251=ADVANCED_FACE('',(#116),#1188,.F.);
#1252=ADVANCED_FACE('',(#117),#1189,.F.);
#1253=ADVANCED_FACE('',(#118),#1190,.F.);
#1254=ADVANCED_FACE('',(#119),#1191,.F.);
#1255=ADVANCED_FACE('',(#120),#1192,.F.);
#1256=ADVANCED_FACE('',(#121),#1193,.F.);
#1257=ADVANCED_FACE('',(#122),#1194,.F.);
#1258=ADVANCED_FACE('',(#123),#1195,.F.);
#1259=ADVANCED_FACE('',(#124),#1196,.F.);
#1260=ADVANCED_FACE('',(#125),#1197,.F.);
#1261=ADVANCED_FACE('',(#126),#1198,.F.);
#1262=ADVANCED_FACE('',(#127),#1199,.F.);
#1263=CLOSED_SHELL('',(#1200,#1201,#1202,#1203,#1204,#1205,#1206,#1207,
#1208,#1209,#1210,#1211,#1212,#1213,#1214,#1215,#1216,#1217,#1218,#1219,
#1220,#1221,#1222,#1223,#1224,#1225,#1226,#1227,#1228,#1229,#1230,#1231,
#1232,#1233,#1234,#1235,#1236,#1237,#1238,#1239,#1240,#1241,#1242,#1243,
#1244,#1245,#1246,#1247,#1248,#1249,#1250,#1251,#1252,#1253,#1254,#1255,
#1256,#1257,#1258,#1259,#1260,#1261,#1262));
#1264=AXIS2_PLACEMENT_3D('placement',#1722,#1370,#1371);
#1265=AXIS2_PLACEMENT_3D('',#1723,#1372,#1373);
#1266=AXIS2_PLACEMENT_3D('',#1732,#1378,#1379);
#1267=AXIS2_PLACEMENT_3D('',#1738,#1383,#1384);
#1268=AXIS2_PLACEMENT_3D('',#1744,#1388,#1389);
#1269=AXIS2_PLACEMENT_3D('',#1753,#1394,#1395);
#1270=AXIS2_PLACEMENT_3D('',#1759,#1399,#1400);
#1271=AXIS2_PLACEMENT_3D('',#1765,#1404,#1405);
#1272=AXIS2_PLACEMENT_3D('',#1774,#1410,#1411);
#1273=AXIS2_PLACEMENT_3D('',#1780,#1415,#1416);
#1274=AXIS2_PLACEMENT_3D('',#1786,#1420,#1421);
#1275=AXIS2_PLACEMENT_3D('',#1795,#1426,#1427);
#1276=AXIS2_PLACEMENT_3D('',#1801,#1431,#1432);
#1277=AXIS2_PLACEMENT_3D('',#1807,#1436,#1437);
#1278=AXIS2_PLACEMENT_3D('',#1816,#1442,#1443);
#1279=AXIS2_PLACEMENT_3D('',#1825,#1448,#1449);
#1280=AXIS2_PLACEMENT_3D('',#1831,#1453,#1454);
#1281=AXIS2_PLACEMENT_3D('',#1837,#1458,#1459);
#1282=AXIS2_PLACEMENT_3D('',#1843,#1463,#1464);
#1283=AXIS2_PLACEMENT_3D('',#1849,#1468,#1469);
#1284=AXIS2_PLACEMENT_3D('',#1851,#1470,#1471);
#1285=AXIS2_PLACEMENT_3D('',#1853,#1472,#1473);
#1286=AXIS2_PLACEMENT_3D('',#1857,#1475,#1476);
#1287=AXIS2_PLACEMENT_3D('',#1861,#1478,#1479);
#1288=AXIS2_PLACEMENT_3D('',#1865,#1481,#1482);
#1289=AXIS2_PLACEMENT_3D('',#1869,#1484,#1485);
#1290=AXIS2_PLACEMENT_3D('',#1873,#1487,#1488);
#1291=AXIS2_PLACEMENT_3D('',#1877,#1490,#1491);
#1292=AXIS2_PLACEMENT_3D('',#1880,#1493,#1494);
#1293=AXIS2_PLACEMENT_3D('',#1882,#1495,#1496);
#1294=AXIS2_PLACEMENT_3D('',#1884,#1498,#1499);
#1295=AXIS2_PLACEMENT_3D('',#1886,#1500,#1501);
#1296=AXIS2_PLACEMENT_3D('',#1889,#1503,#1504);
#1297=AXIS2_PLACEMENT_3D('',#1891,#1505,#1506);
#1298=AXIS2_PLACEMENT_3D('',#1895,#1508,#1509);
#1299=AXIS2_PLACEMENT_3D('',#1899,#1511,#1512);
#1300=AXIS2_PLACEMENT_3D('',#1903,#1514,#1515);
#1301=AXIS2_PLACEMENT_3D('',#1907,#1517,#1518);
#1302=AXIS2_PLACEMENT_3D('',#1911,#1520,#1521);
#1303=AXIS2_PLACEMENT_3D('',#1915,#1523,#1524);
#1304=AXIS2_PLACEMENT_3D('',#1918,#1526,#1527);
#1305=AXIS2_PLACEMENT_3D('',#1919,#1528,#1529);
#1306=AXIS2_PLACEMENT_3D('',#1928,#1534,#1535);
#1307=AXIS2_PLACEMENT_3D('',#1931,#1538,#1539);
#1308=AXIS2_PLACEMENT_3D('',#1934,#1542,#1543);
#1309=AXIS2_PLACEMENT_3D('',#1943,#1548,#1549);
#1310=AXIS2_PLACEMENT_3D('',#1946,#1552,#1553);
#1311=AXIS2_PLACEMENT_3D('',#1949,#1556,#1557);
#1312=AXIS2_PLACEMENT_3D('',#1958,#1562,#1563);
#1313=AXIS2_PLACEMENT_3D('',#1961,#1566,#1567);
#1314=AXIS2_PLACEMENT_3D('',#1964,#1570,#1571);
#1315=AXIS2_PLACEMENT_3D('',#1968,#1573,#1574);
#1316=AXIS2_PLACEMENT_3D('',#1976,#1578,#1579);
#1317=AXIS2_PLACEMENT_3D('',#1978,#1581,#1582);
#1318=AXIS2_PLACEMENT_3D('',#1984,#1586,#1587);
#1319=AXIS2_PLACEMENT_3D('',#1986,#1588,#1589);
#1320=AXIS2_PLACEMENT_3D('',#1990,#1592,#1593);
#1321=AXIS2_PLACEMENT_3D('',#1991,#1594,#1595);
#1322=AXIS2_PLACEMENT_3D('',#1995,#1598,#1599);
#1323=AXIS2_PLACEMENT_3D('',#1998,#1601,#1602);
#1324=AXIS2_PLACEMENT_3D('',#1999,#1603,#1604);
#1325=AXIS2_PLACEMENT_3D('',#2003,#1607,#1608);
#1326=AXIS2_PLACEMENT_3D('',#2006,#1610,#1611);
#1327=AXIS2_PLACEMENT_3D('',#2007,#1612,#1613);
#1328=AXIS2_PLACEMENT_3D('',#2011,#1615,#1616);
#1329=AXIS2_PLACEMENT_3D('',#2013,#1617,#1618);
#1330=AXIS2_PLACEMENT_3D('',#2016,#1620,#1621);
#1331=AXIS2_PLACEMENT_3D('',#2018,#1622,#1623);
#1332=AXIS2_PLACEMENT_3D('',#2021,#1625,#1626);
#1333=AXIS2_PLACEMENT_3D('',#2023,#1627,#1628);
#1334=AXIS2_PLACEMENT_3D('',#2026,#1630,#1631);
#1335=AXIS2_PLACEMENT_3D('',#2027,#1632,#1633);
#1336=AXIS2_PLACEMENT_3D('',#2028,#1634,#1635);
#1337=AXIS2_PLACEMENT_3D('',#2030,#1636,#1637);
#1338=AXIS2_PLACEMENT_3D('',#2033,#1639,#1640);
#1339=AXIS2_PLACEMENT_3D('',#2035,#1641,#1642);
#1340=AXIS2_PLACEMENT_3D('',#2038,#1644,#1645);
#1341=AXIS2_PLACEMENT_3D('',#2040,#1646,#1647);
#1342=AXIS2_PLACEMENT_3D('',#2043,#1649,#1650);
#1343=AXIS2_PLACEMENT_3D('',#2045,#1651,#1652);
#1344=AXIS2_PLACEMENT_3D('',#2048,#1654,#1655);
#1345=AXIS2_PLACEMENT_3D('',#2049,#1656,#1657);
#1346=AXIS2_PLACEMENT_3D('',#2050,#1658,#1659);
#1347=AXIS2_PLACEMENT_3D('',#2052,#1661,#1662);
#1348=AXIS2_PLACEMENT_3D('',#2054,#1664,#1665);
#1349=AXIS2_PLACEMENT_3D('',#2055,#1666,#1667);
#1350=AXIS2_PLACEMENT_3D('',#2057,#1669,#1670);
#1351=AXIS2_PLACEMENT_3D('',#2059,#1672,#1673);
#1352=AXIS2_PLACEMENT_3D('',#2060,#1674,#1675);
#1353=AXIS2_PLACEMENT_3D('',#2062,#1677,#1678);
#1354=AXIS2_PLACEMENT_3D('',#2064,#1680,#1681);
#1355=AXIS2_PLACEMENT_3D('',#2065,#1682,#1683);
#1356=AXIS2_PLACEMENT_3D('',#2067,#1685,#1686);
#1357=AXIS2_PLACEMENT_3D('',#2069,#1688,#1689);
#1358=AXIS2_PLACEMENT_3D('',#2070,#1690,#1691);
#1359=AXIS2_PLACEMENT_3D('',#2072,#1693,#1694);
#1360=AXIS2_PLACEMENT_3D('',#2074,#1696,#1697);
#1361=AXIS2_PLACEMENT_3D('',#2075,#1698,#1699);
#1362=AXIS2_PLACEMENT_3D('',#2077,#1701,#1702);
#1363=AXIS2_PLACEMENT_3D('',#2079,#1704,#1705);
#1364=AXIS2_PLACEMENT_3D('',#2080,#1706,#1707);
#1365=AXIS2_PLACEMENT_3D('',#2082,#1709,#1710);
#1366=AXIS2_PLACEMENT_3D('',#2084,#1712,#1713);
#1367=AXIS2_PLACEMENT_3D('',#2085,#1714,#1715);
#1368=AXIS2_PLACEMENT_3D('',#2087,#1717,#1718);
#1369=AXIS2_PLACEMENT_3D('',#2089,#1720,#1721);
#1370=DIRECTION('axis',(0.,0.,1.));
#1371=DIRECTION('refdir',(1.,0.,0.));
#1372=DIRECTION('center_axis',(-1.,0.,-1.82123199577617E-16));
#1373=DIRECTION('ref_axis',(-3.5527136788005E-16,0.,1.));
#1374=DIRECTION('',(0.,0.,-1.));
#1375=DIRECTION('',(0.,-1.,0.));
#1376=DIRECTION('',(0.,0.,-1.));
#1377=DIRECTION('',(0.,-1.,0.));
#1378=DIRECTION('center_axis',(0.,-1.,0.));
#1379=DIRECTION('ref_axis',(0.,0.,-1.));
#1380=DIRECTION('',(0.,0.,1.));
#1381=DIRECTION('',(1.,0.,0.));
#1382=DIRECTION('',(-1.,0.,0.));
#1383=DIRECTION('center_axis',(1.,0.,0.));
#1384=DIRECTION('ref_axis',(0.,0.,-1.));
#1385=DIRECTION('',(0.,0.,1.));
#1386=DIRECTION('',(0.,1.,0.));
#1387=DIRECTION('',(0.,1.,0.));
#1388=DIRECTION('center_axis',(-1.,0.,-1.82123199577617E-16));
#1389=DIRECTION('ref_axis',(-3.5527136788005E-16,0.,1.));
#1390=DIRECTION('',(0.,0.,-1.));
#1391=DIRECTION('',(0.,1.,0.));
#1392=DIRECTION('',(0.,0.,-1.));
#1393=DIRECTION('',(0.,-1.,0.));
#1394=DIRECTION('center_axis',(0.,-1.,0.));
#1395=DIRECTION('ref_axis',(0.,0.,-1.));
#1396=DIRECTION('',(-1.,0.,0.));
#1397=DIRECTION('',(0.,0.,1.));
#1398=DIRECTION('',(1.,0.,0.));
#1399=DIRECTION('center_axis',(1.,0.,0.));
#1400=DIRECTION('ref_axis',(0.,0.,-1.));
#1401=DIRECTION('',(0.,-1.,0.));
#1402=DIRECTION('',(0.,0.,1.));
#1403=DIRECTION('',(0.,1.,0.));
#1404=DIRECTION('center_axis',(-1.,0.,-1.82123199577617E-16));
#1405=DIRECTION('ref_axis',(-3.5527136788005E-16,0.,1.));
#1406=DIRECTION('',(8.74191357972564E-16,0.,-1.));
#1407=DIRECTION('',(0.,1.,0.));
#1408=DIRECTION('',(8.74191357972564E-16,0.,-1.));
#1409=DIRECTION('',(0.,-1.,0.));
#1410=DIRECTION('center_axis',(0.,-1.,0.));
#1411=DIRECTION('ref_axis',(0.,0.,-1.));
#1412=DIRECTION('',(-1.,0.,0.));
#1413=DIRECTION('',(0.,0.,1.));
#1414=DIRECTION('',(1.,0.,0.));
#1415=DIRECTION('center_axis',(1.,0.,0.));
#1416=DIRECTION('ref_axis',(0.,0.,-1.));
#1417=DIRECTION('',(0.,-1.,0.));
#1418=DIRECTION('',(0.,0.,1.));
#1419=DIRECTION('',(0.,1.,0.));
#1420=DIRECTION('center_axis',(-1.,0.,-1.82123199577617E-16));
#1421=DIRECTION('ref_axis',(-3.5527136788005E-16,0.,1.));
#1422=DIRECTION('',(0.,0.,-1.));
#1423=DIRECTION('',(0.,1.,0.));
#1424=DIRECTION('',(0.,0.,-1.));
#1425=DIRECTION('',(0.,-1.,0.));
#1426=DIRECTION('center_axis',(0.,-1.,0.));
#1427=DIRECTION('ref_axis',(0.,0.,-1.));
#1428=DIRECTION('',(-1.,0.,0.));
#1429=DIRECTION('',(0.,0.,1.));
#1430=DIRECTION('',(1.,0.,9.50207997796263E-16));
#1431=DIRECTION('center_axis',(1.,0.,0.));
#1432=DIRECTION('ref_axis',(0.,0.,-1.));
#1433=DIRECTION('',(0.,-1.,0.));
#1434=DIRECTION('',(0.,0.,1.));
#1435=DIRECTION('',(0.,1.,0.));
#1436=DIRECTION('center_axis',(0.,-1.,0.));
#1437=DIRECTION('ref_axis',(0.,0.,-1.));
#1438=DIRECTION('',(1.,0.,0.));
#1439=DIRECTION('',(0.,0.,1.));
#1440=DIRECTION('',(-1.,0.,0.));
#1441=DIRECTION('',(0.,0.,-1.));
#1442=DIRECTION('center_axis',(0.,-1.,0.));
#1443=DIRECTION('ref_axis',(0.,0.,-1.));
#1444=DIRECTION('',(-1.,0.,0.));
#1445=DIRECTION('',(0.,0.,-1.));
#1446=DIRECTION('',(-1.,0.,0.));
#1447=DIRECTION('',(0.,0.,1.));
#1448=DIRECTION('center_axis',(1.,0.,0.));
#1449=DIRECTION('ref_axis',(0.,0.,-1.));
#1450=DIRECTION('',(0.,1.,0.));
#1451=DIRECTION('',(0.,0.,1.));
#1452=DIRECTION('',(0.,-1.,0.));
#1453=DIRECTION('center_axis',(1.,0.,0.));
#1454=DIRECTION('ref_axis',(0.,0.,-1.));
#1455=DIRECTION('',(0.,-1.,0.));
#1456=DIRECTION('',(0.,-1.,0.));
#1457=DIRECTION('',(0.,0.,1.));
#1458=DIRECTION('center_axis',(-1.,-1.19518349722812E-16,0.));
#1459=DIRECTION('ref_axis',(0.,0.,1.));
#1460=DIRECTION('',(1.47170262284943E-16,-1.,0.));
#1461=DIRECTION('',(-1.47170262284943E-16,1.,0.));
#1462=DIRECTION('',(0.,0.,1.));
#1463=DIRECTION('center_axis',(-1.,-1.19518349722812E-16,0.));
#1464=DIRECTION('ref_axis',(0.,0.,1.));
#1465=DIRECTION('',(-1.47170262284943E-16,1.,0.));
#1466=DIRECTION('',(0.,0.,1.));
#1467=DIRECTION('',(1.47170262284944E-16,-1.,0.));
#1468=DIRECTION('center_axis',(0.,0.,-1.));
#1469=DIRECTION('ref_axis',(-1.,0.,0.));
#1470=DIRECTION('center_axis',(-1.4393662430946E-16,0.,-1.));
#1471=DIRECTION('ref_axis',(-1.,0.,1.4393662430946E-16));
#1472=DIRECTION('center_axis',(0.,0.,1.));
#1473=DIRECTION('ref_axis',(1.,0.,0.));
#1474=DIRECTION('',(0.,0.,-1.));
#1475=DIRECTION('center_axis',(-1.4393662430946E-16,0.,-1.));
#1476=DIRECTION('ref_axis',(-1.,0.,1.4393662430946E-16));
#1477=DIRECTION('',(0.,0.,1.));
#1478=DIRECTION('center_axis',(0.,0.,1.));
#1479=DIRECTION('ref_axis',(1.,0.,0.));
#1480=DIRECTION('',(0.,0.,-1.));
#1481=DIRECTION('center_axis',(-1.4393662430946E-16,0.,-1.));
#1482=DIRECTION('ref_axis',(-1.,0.,1.4393662430946E-16));
#1483=DIRECTION('',(0.,0.,1.));
#1484=DIRECTION('center_axis',(0.,0.,1.));
#1485=DIRECTION('ref_axis',(1.,0.,0.));
#1486=DIRECTION('',(0.,0.,-1.));
#1487=DIRECTION('center_axis',(-1.4393662430946E-16,0.,-1.));
#1488=DIRECTION('ref_axis',(-1.,0.,1.4393662430946E-16));
#1489=DIRECTION('',(0.,0.,1.));
#1490=DIRECTION('center_axis',(2.13952479781529E-16,0.,-1.));
#1491=DIRECTION('ref_axis',(-1.,0.,-2.13952479781529E-16));
#1492=DIRECTION('',(0.,0.,1.));
#1493=DIRECTION('center_axis',(0.,0.,1.));
#1494=DIRECTION('ref_axis',(1.,0.,0.));
#1495=DIRECTION('center_axis',(0.,0.,1.));
#1496=DIRECTION('ref_axis',(1.,0.,0.));
#1497=DIRECTION('',(0.,0.,-1.));
#1498=DIRECTION('center_axis',(0.,0.,-1.));
#1499=DIRECTION('ref_axis',(-1.,0.,0.));
#1500=DIRECTION('center_axis',(-1.4393662430946E-16,0.,-1.));
#1501=DIRECTION('ref_axis',(-1.,0.,1.43936624309461E-16));
#1502=DIRECTION('',(0.,0.,-1.));
#1503=DIRECTION('center_axis',(0.,0.,1.));
#1504=DIRECTION('ref_axis',(1.,0.,0.));
#1505=DIRECTION('center_axis',(0.,0.,1.));
#1506=DIRECTION('ref_axis',(1.,0.,0.));
#1507=DIRECTION('',(0.,0.,1.));
#1508=DIRECTION('center_axis',(2.13952479781529E-16,0.,-1.));
#1509=DIRECTION('ref_axis',(-1.,0.,-2.13952479781529E-16));
#1510=DIRECTION('',(0.,0.,1.));
#1511=DIRECTION('center_axis',(-1.4393662430946E-16,0.,-1.));
#1512=DIRECTION('ref_axis',(-1.,0.,1.43936624309461E-16));
#1513=DIRECTION('',(0.,0.,-1.));
#1514=DIRECTION('center_axis',(0.,0.,1.));
#1515=DIRECTION('ref_axis',(1.,0.,0.));
#1516=DIRECTION('',(0.,0.,1.));
#1517=DIRECTION('center_axis',(-1.4393662430946E-16,0.,-1.));
#1518=DIRECTION('ref_axis',(-1.,0.,1.43936624309461E-16));
#1519=DIRECTION('',(0.,0.,-1.));
#1520=DIRECTION('center_axis',(0.,0.,1.));
#1521=DIRECTION('ref_axis',(1.,0.,0.));
#1522=DIRECTION('',(0.,0.,1.));
#1523=DIRECTION('center_axis',(-1.4393662430946E-16,0.,-1.));
#1524=DIRECTION('ref_axis',(-1.,0.,1.43936624309461E-16));
#1525=DIRECTION('',(0.,0.,-1.));
#1526=DIRECTION('center_axis',(0.,0.,1.));
#1527=DIRECTION('ref_axis',(1.,0.,0.));
#1528=DIRECTION('center_axis',(0.,-1.,0.));
#1529=DIRECTION('ref_axis',(0.,0.,-1.));
#1530=DIRECTION('',(1.,0.,0.));
#1531=DIRECTION('',(0.,0.,1.));
#1532=DIRECTION('',(-1.,0.,0.));
#1533=DIRECTION('',(0.,0.,-1.));
#1534=DIRECTION('center_axis',(1.,0.,0.));
#1535=DIRECTION('ref_axis',(0.,0.,-1.));
#1536=DIRECTION('',(0.,1.,0.));
#1537=DIRECTION('',(0.,-1.,0.));
#1538=DIRECTION('center_axis',(-1.,-1.19518349722812E-16,0.));
#1539=DIRECTION('ref_axis',(0.,0.,1.));
#1540=DIRECTION('',(1.47170262284943E-16,-1.,0.));
#1541=DIRECTION('',(-1.47170262284943E-16,1.,0.));
#1542=DIRECTION('center_axis',(0.,-1.,0.));
#1543=DIRECTION('ref_axis',(0.,0.,-1.));
#1544=DIRECTION('',(1.,0.,0.));
#1545=DIRECTION('',(0.,0.,1.));
#1546=DIRECTION('',(-1.,0.,0.));
#1547=DIRECTION('',(0.,0.,-1.));
#1548=DIRECTION('center_axis',(1.,0.,0.));
#1549=DIRECTION('ref_axis',(0.,0.,-1.));
#1550=DIRECTION('',(0.,1.,0.));
#1551=DIRECTION('',(0.,-1.,0.));
#1552=DIRECTION('center_axis',(-1.,-1.19518349722812E-16,0.));
#1553=DIRECTION('ref_axis',(0.,0.,1.));
#1554=DIRECTION('',(1.47170262284943E-16,-1.,0.));
#1555=DIRECTION('',(-1.47170262284943E-16,1.,0.));
#1556=DIRECTION('center_axis',(0.,-1.,0.));
#1557=DIRECTION('ref_axis',(0.,0.,-1.));
#1558=DIRECTION('',(1.,0.,0.));
#1559=DIRECTION('',(0.,0.,1.));
#1560=DIRECTION('',(1.,0.,2.13952479781529E-16));
#1561=DIRECTION('',(0.,0.,-1.));
#1562=DIRECTION('center_axis',(1.,0.,0.));
#1563=DIRECTION('ref_axis',(0.,0.,-1.));
#1564=DIRECTION('',(0.,1.,0.));
#1565=DIRECTION('',(0.,-1.,0.));
#1566=DIRECTION('center_axis',(-1.,-1.19518349722812E-16,0.));
#1567=DIRECTION('ref_axis',(0.,0.,1.));
#1568=DIRECTION('',(1.47170262284943E-16,-1.,0.));
#1569=DIRECTION('',(1.47170262284944E-16,-1.,0.));
#1570=DIRECTION('center_axis',(2.13952479781529E-16,0.,-1.));
#1571=DIRECTION('ref_axis',(-1.,0.,-2.13952479781529E-16));
#1572=DIRECTION('',(1.,0.,2.13952479781529E-16));
#1573=DIRECTION('center_axis',(2.13952479781529E-16,0.,-1.));
#1574=DIRECTION('ref_axis',(-1.,0.,-2.13952479781529E-16));
#1575=DIRECTION('',(0.,-1.,0.));
#1576=DIRECTION('',(1.,0.,2.13952479781529E-16));
#1577=DIRECTION('',(0.,1.,0.));
#1578=DIRECTION('center_axis',(2.13952479781529E-16,0.,-1.));
#1579=DIRECTION('ref_axis',(-1.,0.,-2.13952479781529E-16));
#1580=DIRECTION('',(1.,1.47170262284943E-16,0.));
#1581=DIRECTION('center_axis',(-1.,0.,-1.82123199577617E-16));
#1582=DIRECTION('ref_axis',(-3.5527136788005E-16,0.,1.));
#1583=DIRECTION('',(0.,0.,-1.));
#1584=DIRECTION('',(0.,1.,0.));
#1585=DIRECTION('',(0.,0.,-1.));
#1586=DIRECTION('center_axis',(0.,0.,1.));
#1587=DIRECTION('ref_axis',(1.,0.,0.));
#1588=DIRECTION('center_axis',(0.,0.,1.));
#1589=DIRECTION('ref_axis',(1.,0.,0.));
#1590=DIRECTION('',(-1.,0.,0.));
#1591=DIRECTION('',(1.,1.47170262284943E-16,0.));
#1592=DIRECTION('center_axis',(0.,0.,1.));
#1593=DIRECTION('ref_axis',(1.,0.,0.));
#1594=DIRECTION('center_axis',(0.,-1.,0.));
#1595=DIRECTION('ref_axis',(0.,0.,-1.));
#1596=DIRECTION('',(-1.,0.,-4.75103998898132E-16));
#1597=DIRECTION('',(0.,0.,1.));
#1598=DIRECTION('center_axis',(0.,-1.,0.));
#1599=DIRECTION('ref_axis',(0.,0.,-1.));
#1600=DIRECTION('',(1.16558847729675E-16,0.,-1.));
#1601=DIRECTION('center_axis',(-1.29742020975696E-16,1.,0.));
#1602=DIRECTION('ref_axis',(-1.,-1.29742020975696E-16,0.));
#1603=DIRECTION('center_axis',(1.,0.,0.));
#1604=DIRECTION('ref_axis',(0.,0.,-1.));
#1605=DIRECTION('',(0.,-1.,0.));
#1606=DIRECTION('',(0.,0.,1.));
#1607=DIRECTION('center_axis',(1.29742020975696E-16,-1.,0.));
#1608=DIRECTION('ref_axis',(0.,0.,-1.));
#1609=DIRECTION('',(0.,0.,1.));
#1610=DIRECTION('center_axis',(-1.29742020975696E-16,1.,0.));
#1611=DIRECTION('ref_axis',(-1.,-1.29742020975696E-16,0.));
#1612=DIRECTION('center_axis',(0.,0.,-1.));
#1613=DIRECTION('ref_axis',(-1.,0.,0.));
#1614=DIRECTION('',(0.,0.,-1.));
#1615=DIRECTION('center_axis',(1.82123199577618E-16,0.,-1.));
#1616=DIRECTION('ref_axis',(-1.,0.,-1.82123199577618E-16));
#1617=DIRECTION('center_axis',(-3.26059823887078E-16,0.,1.));
#1618=DIRECTION('ref_axis',(1.,0.,3.26059823887078E-16));
#1619=DIRECTION('',(0.,0.,-1.));
#1620=DIRECTION('center_axis',(1.82123199577618E-16,0.,-1.));
#1621=DIRECTION('ref_axis',(-1.,0.,-1.82123199577618E-16));
#1622=DIRECTION('center_axis',(-3.26059823887078E-16,0.,1.));
#1623=DIRECTION('ref_axis',(1.,0.,3.26059823887078E-16));
#1624=DIRECTION('',(0.,0.,-1.));
#1625=DIRECTION('center_axis',(1.82123199577618E-16,0.,-1.));
#1626=DIRECTION('ref_axis',(-1.,0.,-1.82123199577618E-16));
#1627=DIRECTION('center_axis',(-3.26059823887078E-16,0.,1.));
#1628=DIRECTION('ref_axis',(1.,0.,3.26059823887078E-16));
#1629=DIRECTION('',(0.,0.,-1.));
#1630=DIRECTION('center_axis',(1.82123199577618E-16,0.,-1.));
#1631=DIRECTION('ref_axis',(-1.,0.,-1.82123199577618E-16));
#1632=DIRECTION('center_axis',(-3.26059823887078E-16,0.,1.));
#1633=DIRECTION('ref_axis',(1.,0.,3.26059823887078E-16));
#1634=DIRECTION('center_axis',(-1.82123199577618E-16,0.,1.));
#1635=DIRECTION('ref_axis',(1.,0.,1.82123199577618E-16));
#1636=DIRECTION('center_axis',(1.82123199577618E-16,0.,-1.));
#1637=DIRECTION('ref_axis',(-1.,0.,-1.82123199577618E-16));
#1638=DIRECTION('',(0.,0.,1.));
#1639=DIRECTION('center_axis',(-3.26059823887078E-16,0.,1.));
#1640=DIRECTION('ref_axis',(1.,0.,3.26059823887078E-16));
#1641=DIRECTION('center_axis',(1.82123199577618E-16,0.,-1.));
#1642=DIRECTION('ref_axis',(-1.,0.,-1.82123199577618E-16));
#1643=DIRECTION('',(0.,0.,1.));
#1644=DIRECTION('center_axis',(-3.26059823887078E-16,0.,1.));
#1645=DIRECTION('ref_axis',(1.,0.,3.26059823887078E-16));
#1646=DIRECTION('center_axis',(1.82123199577618E-16,0.,-1.));
#1647=DIRECTION('ref_axis',(-1.,0.,-1.82123199577618E-16));
#1648=DIRECTION('',(0.,0.,1.));
#1649=DIRECTION('center_axis',(-3.26059823887078E-16,0.,1.));
#1650=DIRECTION('ref_axis',(1.,0.,3.26059823887078E-16));
#1651=DIRECTION('center_axis',(1.82123199577618E-16,0.,-1.));
#1652=DIRECTION('ref_axis',(-1.,0.,-1.82123199577618E-16));
#1653=DIRECTION('',(0.,0.,1.));
#1654=DIRECTION('center_axis',(-3.26059823887078E-16,0.,1.));
#1655=DIRECTION('ref_axis',(1.,0.,3.26059823887078E-16));
#1656=DIRECTION('center_axis',(-1.29742020975696E-16,1.,0.));
#1657=DIRECTION('ref_axis',(-1.,-1.29742020975696E-16,0.));
#1658=DIRECTION('center_axis',(-1.4393662430946E-16,0.,-1.));
#1659=DIRECTION('ref_axis',(-1.,0.,1.33226762955019E-16));
#1660=DIRECTION('',(0.,-1.,0.));
#1661=DIRECTION('center_axis',(-1.,0.,1.36592399683213E-16));
#1662=DIRECTION('ref_axis',(1.33226762955019E-16,0.,1.));
#1663=DIRECTION('',(0.,-1.,0.));
#1664=DIRECTION('center_axis',(0.,0.,1.));
#1665=DIRECTION('ref_axis',(1.,0.,0.));
#1666=DIRECTION('center_axis',(-1.4393662430946E-16,0.,-1.));
#1667=DIRECTION('ref_axis',(-1.,0.,1.77635683940025E-16));
#1668=DIRECTION('',(0.,-1.,0.));
#1669=DIRECTION('center_axis',(-1.,0.,1.36592399683213E-16));
#1670=DIRECTION('ref_axis',(1.33226762955019E-16,0.,1.));
#1671=DIRECTION('',(0.,-1.,0.));
#1672=DIRECTION('center_axis',(0.,0.,1.));
#1673=DIRECTION('ref_axis',(1.,0.,0.));
#1674=DIRECTION('center_axis',(-1.4393662430946E-16,0.,-1.));
#1675=DIRECTION('ref_axis',(-1.,0.,1.77635683940025E-16));
#1676=DIRECTION('',(0.,-1.,0.));
#1677=DIRECTION('center_axis',(-1.,0.,1.36592399683213E-16));
#1678=DIRECTION('ref_axis',(1.33226762955019E-16,0.,1.));
#1679=DIRECTION('',(0.,-1.,0.));
#1680=DIRECTION('center_axis',(0.,0.,1.));
#1681=DIRECTION('ref_axis',(1.,0.,0.));
#1682=DIRECTION('center_axis',(-1.4393662430946E-16,0.,-1.));
#1683=DIRECTION('ref_axis',(-1.,0.,1.77635683940025E-16));
#1684=DIRECTION('',(0.,-1.,0.));
#1685=DIRECTION('center_axis',(-1.,0.,1.36592399683213E-16));
#1686=DIRECTION('ref_axis',(1.33226762955019E-16,0.,1.));
#1687=DIRECTION('',(0.,-1.,0.));
#1688=DIRECTION('center_axis',(0.,0.,1.));
#1689=DIRECTION('ref_axis',(1.,0.,0.));
#1690=DIRECTION('center_axis',(1.82123199577618E-16,0.,-1.));
#1691=DIRECTION('ref_axis',(-1.,0.,-1.77635683940025E-16));
#1692=DIRECTION('',(0.,-1.,0.));
#1693=DIRECTION('center_axis',(-1.,0.,-3.18715599260831E-16));
#1694=DIRECTION('ref_axis',(-3.5527136788005E-16,0.,1.));
#1695=DIRECTION('',(0.,-1.,0.));
#1696=DIRECTION('center_axis',(-3.26059823887078E-16,0.,1.));
#1697=DIRECTION('ref_axis',(1.,0.,3.10862446895044E-16));
#1698=DIRECTION('center_axis',(1.82123199577618E-16,0.,-1.));
#1699=DIRECTION('ref_axis',(-1.,0.,-1.77635683940025E-16));
#1700=DIRECTION('',(0.,-1.,0.));
#1701=DIRECTION('center_axis',(-1.,0.,-3.18715599260831E-16));
#1702=DIRECTION('ref_axis',(-3.5527136788005E-16,0.,1.));
#1703=DIRECTION('',(0.,-1.,0.));
#1704=DIRECTION('center_axis',(-3.26059823887078E-16,0.,1.));
#1705=DIRECTION('ref_axis',(1.,0.,3.5527136788005E-16));
#1706=DIRECTION('center_axis',(1.82123199577618E-16,0.,-1.));
#1707=DIRECTION('ref_axis',(-1.,0.,-1.77635683940025E-16));
#1708=DIRECTION('',(0.,-1.,0.));
#1709=DIRECTION('center_axis',(-1.,0.,-3.18715599260831E-16));
#1710=DIRECTION('ref_axis',(-3.5527136788005E-16,0.,1.));
#1711=DIRECTION('',(0.,-1.,0.));
#1712=DIRECTION('center_axis',(-3.26059823887078E-16,0.,1.));
#1713=DIRECTION('ref_axis',(1.,0.,3.5527136788005E-16));
#1714=DIRECTION('center_axis',(1.82123199577618E-16,0.,-1.));
#1715=DIRECTION('ref_axis',(-1.,0.,-3.5527136788005E-16));
#1716=DIRECTION('',(0.,-1.,0.));
#1717=DIRECTION('center_axis',(-1.,0.,-3.18715599260831E-16));
#1718=DIRECTION('ref_axis',(-3.5527136788005E-16,0.,1.));
#1719=DIRECTION('',(0.,-1.,0.));
#1720=DIRECTION('center_axis',(-3.26059823887078E-16,0.,1.));
#1721=DIRECTION('ref_axis',(1.,0.,3.5527136788005E-16));
#1722=CARTESIAN_POINT('',(0.,0.,0.));
#1723=CARTESIAN_POINT('Origin',(19.05,9.525,-19.05));
#1724=CARTESIAN_POINT('',(19.05,9.525,-16.51));
#1725=CARTESIAN_POINT('',(19.05,9.525,-19.05));
#1726=CARTESIAN_POINT('',(19.05,9.525,-16.51));
#1727=CARTESIAN_POINT('',(19.05,1.5748,-16.51));
#1728=CARTESIAN_POINT('',(19.05,9.525,-16.51));
#1729=CARTESIAN_POINT('',(19.05,1.5748,-19.05));
#1730=CARTESIAN_POINT('',(19.05,1.5748,-16.51));
#1731=CARTESIAN_POINT('',(19.05,9.525,-19.05));
#1732=CARTESIAN_POINT('Origin',(0.,9.525,0.));
#1733=CARTESIAN_POINT('',(17.8816,9.525,-19.05));
#1734=CARTESIAN_POINT('',(17.8816,9.525,-16.51));
#1735=CARTESIAN_POINT('',(17.8816,9.525,-19.05));
#1736=CARTESIAN_POINT('',(17.8816,9.525,-16.51));
#1737=CARTESIAN_POINT('',(19.05,9.525,-19.05));
#1738=CARTESIAN_POINT('Origin',(17.8816,13.8684,-19.05));
#1739=CARTESIAN_POINT('',(17.8816,1.9812,-19.05));
#1740=CARTESIAN_POINT('',(17.8816,1.9812,-16.51));
#1741=CARTESIAN_POINT('',(17.8816,1.9812,-19.05));
#1742=CARTESIAN_POINT('',(17.8816,1.9812,-16.51));
#1743=CARTESIAN_POINT('',(17.8816,1.9812,-19.05));
#1744=CARTESIAN_POINT('Origin',(19.05,9.525,-19.05));
#1745=CARTESIAN_POINT('',(19.05,1.5748,-12.3825));
#1746=CARTESIAN_POINT('',(19.05,1.5748,-14.9225));
#1747=CARTESIAN_POINT('',(19.05,1.5748,-12.3825));
#1748=CARTESIAN_POINT('',(19.05,9.525,-14.9225));
#1749=CARTESIAN_POINT('',(19.05,1.5748,-14.9225));
#1750=CARTESIAN_POINT('',(19.05,9.525,-12.3825));
#1751=CARTESIAN_POINT('',(19.05,9.525,-12.3825));
#1752=CARTESIAN_POINT('',(19.05,9.525,-12.3825));
#1753=CARTESIAN_POINT('Origin',(0.,9.525,0.));
#1754=CARTESIAN_POINT('',(17.8816,9.525,-14.9225));
#1755=CARTESIAN_POINT('',(19.05,9.525,-14.9225));
#1756=CARTESIAN_POINT('',(17.8816,9.525,-12.3825));
#1757=CARTESIAN_POINT('',(17.8816,9.525,-14.9225));
#1758=CARTESIAN_POINT('',(17.8816,9.525,-12.3825));
#1759=CARTESIAN_POINT('Origin',(17.8816,13.8684,-19.05));
#1760=CARTESIAN_POINT('',(17.8816,1.9812,-14.9225));
#1761=CARTESIAN_POINT('',(17.8816,9.525,-14.9225));
#1762=CARTESIAN_POINT('',(17.8816,1.9812,-12.3825));
#1763=CARTESIAN_POINT('',(17.8816,1.9812,-14.9225));
#1764=CARTESIAN_POINT('',(17.8816,1.9812,-12.3825));
#1765=CARTESIAN_POINT('Origin',(19.05,9.525,-19.05));
#1766=CARTESIAN_POINT('',(19.05,1.5748,-8.255));
#1767=CARTESIAN_POINT('',(19.05,1.5748,-10.795));
#1768=CARTESIAN_POINT('',(19.05,1.5748,-8.255));
#1769=CARTESIAN_POINT('',(19.05,9.525,-10.795));
#1770=CARTESIAN_POINT('',(19.05,1.5748,-10.795));
#1771=CARTESIAN_POINT('',(19.05,9.525,-8.255));
#1772=CARTESIAN_POINT('',(19.05,9.525,-8.255));
#1773=CARTESIAN_POINT('',(19.05,9.525,-8.255));
#1774=CARTESIAN_POINT('Origin',(0.,9.525,0.));
#1775=CARTESIAN_POINT('',(17.8816,9.525,-10.795));
#1776=CARTESIAN_POINT('',(19.05,9.525,-10.795));
#1777=CARTESIAN_POINT('',(17.8816,9.525,-8.255));
#1778=CARTESIAN_POINT('',(17.8816,9.525,-10.795));
#1779=CARTESIAN_POINT('',(17.8816,9.525,-8.255));
#1780=CARTESIAN_POINT('Origin',(17.8816,13.8684,-19.05));
#1781=CARTESIAN_POINT('',(17.8816,1.9812,-10.795));
#1782=CARTESIAN_POINT('',(17.8816,9.525,-10.795));
#1783=CARTESIAN_POINT('',(17.8816,1.9812,-8.255));
#1784=CARTESIAN_POINT('',(17.8816,1.9812,-10.795));
#1785=CARTESIAN_POINT('',(17.8816,1.9812,-8.255));
#1786=CARTESIAN_POINT('Origin',(19.05,9.525,-19.05));
#1787=CARTESIAN_POINT('',(19.05,1.5748,-4.1275));
#1788=CARTESIAN_POINT('',(19.05,1.5748,-6.6675));
#1789=CARTESIAN_POINT('',(19.05,1.5748,-4.1275));
#1790=CARTESIAN_POINT('',(19.05,9.525,-6.6675));
#1791=CARTESIAN_POINT('',(19.05,1.5748,-6.6675));
#1792=CARTESIAN_POINT('',(19.05,9.525,-4.1275));
#1793=CARTESIAN_POINT('',(19.05,9.525,-4.1275));
#1794=CARTESIAN_POINT('',(19.05,9.525,-4.1275));
#1795=CARTESIAN_POINT('Origin',(0.,9.525,0.));
#1796=CARTESIAN_POINT('',(17.8816,9.525,-6.6675));
#1797=CARTESIAN_POINT('',(19.05,9.525,-6.6675));
#1798=CARTESIAN_POINT('',(17.8816,9.525,-4.1275));
#1799=CARTESIAN_POINT('',(17.8816,9.525,-6.6675));
#1800=CARTESIAN_POINT('',(17.8816,9.525,-4.1275));
#1801=CARTESIAN_POINT('Origin',(17.8816,13.8684,-19.05));
#1802=CARTESIAN_POINT('',(17.8816,1.9812,-6.6675));
#1803=CARTESIAN_POINT('',(17.8816,9.525,-6.6675));
#1804=CARTESIAN_POINT('',(17.8816,1.9812,-4.1275));
#1805=CARTESIAN_POINT('',(17.8816,1.9812,-6.6675));
#1806=CARTESIAN_POINT('',(17.8816,1.9812,-4.1275));
#1807=CARTESIAN_POINT('Origin',(0.,9.525,0.));
#1808=CARTESIAN_POINT('',(0.,9.525,-14.9225));
#1809=CARTESIAN_POINT('',(1.1684,9.525,-14.9225));
#1810=CARTESIAN_POINT('',(0.,9.525,-14.9225));
#1811=CARTESIAN_POINT('',(0.,9.525,-12.3825));
#1812=CARTESIAN_POINT('',(0.,9.525,-14.9225));
#1813=CARTESIAN_POINT('',(1.1684,9.525,-12.3825));
#1814=CARTESIAN_POINT('',(1.1684,9.525,-12.3825));
#1815=CARTESIAN_POINT('',(1.1684,9.525,-12.3825));
#1816=CARTESIAN_POINT('Origin',(0.,9.525,0.));
#1817=CARTESIAN_POINT('',(1.1684,9.525,-16.51));
#1818=CARTESIAN_POINT('',(0.,9.525,-16.51));
#1819=CARTESIAN_POINT('',(1.1684,9.525,-16.51));
#1820=CARTESIAN_POINT('',(1.1684,9.525,-19.05));
#1821=CARTESIAN_POINT('',(1.1684,9.525,-16.51));
#1822=CARTESIAN_POINT('',(0.,9.525,-19.05));
#1823=CARTESIAN_POINT('',(1.1684,9.525,-19.05));
#1824=CARTESIAN_POINT('',(0.,9.525,-19.05));
#1825=CARTESIAN_POINT('Origin',(0.,9.525,0.));
#1826=CARTESIAN_POINT('',(0.,1.5748,-14.9225));
#1827=CARTESIAN_POINT('',(0.,1.5748,-14.9225));
#1828=CARTESIAN_POINT('',(0.,1.5748,-12.3825));
#1829=CARTESIAN_POINT('',(0.,1.5748,-14.9225));
#1830=CARTESIAN_POINT('',(0.,9.525,-12.3825));
#1831=CARTESIAN_POINT('Origin',(0.,9.525,0.));
#1832=CARTESIAN_POINT('',(0.,1.5748,-16.51));
#1833=CARTESIAN_POINT('',(0.,9.525,-16.51));
#1834=CARTESIAN_POINT('',(0.,1.5748,-19.05));
#1835=CARTESIAN_POINT('',(0.,9.525,-19.05));
#1836=CARTESIAN_POINT('',(0.,1.5748,-19.05));
#1837=CARTESIAN_POINT('Origin',(1.1684,1.1684,-19.05));
#1838=CARTESIAN_POINT('',(1.1684,1.9812,-14.9225));
#1839=CARTESIAN_POINT('',(1.1684,9.525,-14.9225));
#1840=CARTESIAN_POINT('',(1.1684,1.9812,-12.3825));
#1841=CARTESIAN_POINT('',(1.1684,1.9812,-12.3825));
#1842=CARTESIAN_POINT('',(1.1684,1.9812,-14.9225));
#1843=CARTESIAN_POINT('Origin',(1.1684,1.1684,-19.05));
#1844=CARTESIAN_POINT('',(1.1684,1.9812,-16.51));
#1845=CARTESIAN_POINT('',(1.1684,1.9812,-16.51));
#1846=CARTESIAN_POINT('',(1.1684,1.9812,-19.05));
#1847=CARTESIAN_POINT('',(1.1684,1.9812,-19.05));
#1848=CARTESIAN_POINT('',(1.1684,9.52499999999999,-19.05));
#1849=CARTESIAN_POINT('Origin',(1.9812,1.9812,-19.05));
#1850=CARTESIAN_POINT('',(1.4224,1.39095733803799,-14.9225));
#1851=CARTESIAN_POINT('Origin',(1.9812,1.9812,-14.9225));
#1852=CARTESIAN_POINT('',(1.4224,1.39095733803799,-12.3825));
#1853=CARTESIAN_POINT('Origin',(1.9812,1.9812,-12.3825));
#1854=CARTESIAN_POINT('',(1.4224,1.39095733803799,-10.795));
#1855=CARTESIAN_POINT('',(1.4224,1.39095733803799,-10.795));
#1856=CARTESIAN_POINT('',(1.1684,1.9812,-10.795));
#1857=CARTESIAN_POINT('Origin',(1.9812,1.9812,-10.795));
#1858=CARTESIAN_POINT('',(1.1684,1.9812,-8.255));
#1859=CARTESIAN_POINT('',(1.1684,1.9812,-10.795));
#1860=CARTESIAN_POINT('',(1.4224,1.39095733803799,-8.255));
#1861=CARTESIAN_POINT('Origin',(1.9812,1.9812,-8.255));
#1862=CARTESIAN_POINT('',(1.4224,1.39095733803799,-6.6675));
#1863=CARTESIAN_POINT('',(1.4224,1.39095733803799,-6.6675));
#1864=CARTESIAN_POINT('',(1.1684,1.9812,-6.6675));
#1865=CARTESIAN_POINT('Origin',(1.9812,1.9812,-6.6675));
#1866=CARTESIAN_POINT('',(1.1684,1.9812,-4.1275));
#1867=CARTESIAN_POINT('',(1.1684,1.9812,-6.6675));
#1868=CARTESIAN_POINT('',(1.4224,1.39095733803799,-4.1275));
#1869=CARTESIAN_POINT('Origin',(1.9812,1.9812,-4.1275));
#1870=CARTESIAN_POINT('',(1.4224,1.39095733803799,-2.54));
#1871=CARTESIAN_POINT('',(1.4224,1.39095733803799,-2.54));
#1872=CARTESIAN_POINT('',(1.1684,1.9812,-2.54));
#1873=CARTESIAN_POINT('Origin',(1.9812,1.9812,-2.54));
#1874=CARTESIAN_POINT('',(1.1684,1.9812,0.));
#1875=CARTESIAN_POINT('',(1.1684,1.9812,-2.54));
#1876=CARTESIAN_POINT('',(1.9812,1.1684,0.));
#1877=CARTESIAN_POINT('Origin',(1.9812,1.9812,0.));
#1878=CARTESIAN_POINT('',(1.9812,1.1684,-19.05));
#1879=CARTESIAN_POINT('',(1.9812,1.1684,-19.05));
#1880=CARTESIAN_POINT('Origin',(1.9812,1.9812,-19.05));
#1881=CARTESIAN_POINT('',(1.4224,1.39095733803799,-16.51));
#1882=CARTESIAN_POINT('Origin',(1.9812,1.9812,-16.51));
#1883=CARTESIAN_POINT('',(1.4224,1.39095733803799,-14.9225));
#1884=CARTESIAN_POINT('Origin',(1.5748,1.5748,0.));
#1885=CARTESIAN_POINT('',(1.4224,0.00739154015298553,-14.9225));
#1886=CARTESIAN_POINT('Origin',(1.5748,1.5748,-14.9225));
#1887=CARTESIAN_POINT('',(1.4224,0.00739154015298228,-16.51));
#1888=CARTESIAN_POINT('',(1.4224,0.00739154015298184,-14.9225));
#1889=CARTESIAN_POINT('Origin',(1.5748,1.5748,-16.51));
#1890=CARTESIAN_POINT('',(1.5748,0.,-19.05));
#1891=CARTESIAN_POINT('Origin',(1.5748,1.5748,-19.05));
#1892=CARTESIAN_POINT('',(1.5748,0.,3.36932365159952E-16));
#1893=CARTESIAN_POINT('',(1.5748,0.,-19.05));
#1894=CARTESIAN_POINT('',(0.,1.5748,0.));
#1895=CARTESIAN_POINT('Origin',(1.5748,1.5748,3.36932365159951E-16));
#1896=CARTESIAN_POINT('',(0.,1.5748,-2.54));
#1897=CARTESIAN_POINT('',(0.,1.5748,-2.54));
#1898=CARTESIAN_POINT('',(1.4224,0.00739154015298553,-2.54));
#1899=CARTESIAN_POINT('Origin',(1.5748,1.5748,-2.54));
#1900=CARTESIAN_POINT('',(1.4224,0.00739154015298228,-4.1275));
#1901=CARTESIAN_POINT('',(1.4224,0.00739154015298206,-2.54));
#1902=CARTESIAN_POINT('',(0.,1.5748,-4.1275));
#1903=CARTESIAN_POINT('Origin',(1.5748,1.5748,-4.1275));
#1904=CARTESIAN_POINT('',(0.,1.5748,-6.6675));
#1905=CARTESIAN_POINT('',(0.,1.5748,-6.6675));
#1906=CARTESIAN_POINT('',(1.4224,0.00739154015298553,-6.6675));
#1907=CARTESIAN_POINT('Origin',(1.5748,1.5748,-6.6675));
#1908=CARTESIAN_POINT('',(1.4224,0.00739154015298228,-8.255));
#1909=CARTESIAN_POINT('',(1.4224,0.00739154015298206,-6.6675));
#1910=CARTESIAN_POINT('',(0.,1.5748,-8.255));
#1911=CARTESIAN_POINT('Origin',(1.5748,1.5748,-8.255));
#1912=CARTESIAN_POINT('',(0.,1.5748,-10.795));
#1913=CARTESIAN_POINT('',(0.,1.5748,-10.795));
#1914=CARTESIAN_POINT('',(1.4224,0.00739154015298553,-10.795));
#1915=CARTESIAN_POINT('Origin',(1.5748,1.5748,-10.795));
#1916=CARTESIAN_POINT('',(1.4224,0.00739154015298228,-12.3825));
#1917=CARTESIAN_POINT('',(1.4224,0.00739154015298206,-10.795));
#1918=CARTESIAN_POINT('Origin',(1.5748,1.5748,-12.3825));
#1919=CARTESIAN_POINT('Origin',(0.,9.525,0.));
#1920=CARTESIAN_POINT('',(0.,9.525,-10.795));
#1921=CARTESIAN_POINT('',(1.1684,9.525,-10.795));
#1922=CARTESIAN_POINT('',(0.,9.525,-10.795));
#1923=CARTESIAN_POINT('',(0.,9.525,-8.255));
#1924=CARTESIAN_POINT('',(0.,9.525,-10.795));
#1925=CARTESIAN_POINT('',(1.1684,9.525,-8.255));
#1926=CARTESIAN_POINT('',(1.1684,9.525,-8.255));
#1927=CARTESIAN_POINT('',(1.1684,9.525,-8.255));
#1928=CARTESIAN_POINT('Origin',(0.,9.525,0.));
#1929=CARTESIAN_POINT('',(0.,1.5748,-10.795));
#1930=CARTESIAN_POINT('',(0.,9.525,-8.255));
#1931=CARTESIAN_POINT('Origin',(1.1684,1.1684,-19.05));
#1932=CARTESIAN_POINT('',(1.1684,9.525,-10.795));
#1933=CARTESIAN_POINT('',(1.1684,1.9812,-8.255));
#1934=CARTESIAN_POINT('Origin',(0.,9.525,0.));
#1935=CARTESIAN_POINT('',(0.,9.525,-6.6675));
#1936=CARTESIAN_POINT('',(1.1684,9.525,-6.6675));
#1937=CARTESIAN_POINT('',(0.,9.525,-6.6675));
#1938=CARTESIAN_POINT('',(0.,9.525,-4.1275));
#1939=CARTESIAN_POINT('',(0.,9.525,-6.6675));
#1940=CARTESIAN_POINT('',(1.1684,9.525,-4.1275));
#1941=CARTESIAN_POINT('',(1.1684,9.525,-4.1275));
#1942=CARTESIAN_POINT('',(1.1684,9.525,-4.1275));
#1943=CARTESIAN_POINT('Origin',(0.,9.525,0.));
#1944=CARTESIAN_POINT('',(0.,1.5748,-6.6675));
#1945=CARTESIAN_POINT('',(0.,9.525,-4.1275));
#1946=CARTESIAN_POINT('Origin',(1.1684,1.1684,-19.05));
#1947=CARTESIAN_POINT('',(1.1684,9.525,-6.6675));
#1948=CARTESIAN_POINT('',(1.1684,1.9812,-4.1275));
#1949=CARTESIAN_POINT('Origin',(0.,9.525,0.));
#1950=CARTESIAN_POINT('',(0.,9.525,-2.54));
#1951=CARTESIAN_POINT('',(1.1684,9.525,-2.54));
#1952=CARTESIAN_POINT('',(0.,9.525,-2.54));
#1953=CARTESIAN_POINT('',(0.,9.525,0.));
#1954=CARTESIAN_POINT('',(0.,9.525,-2.54));
#1955=CARTESIAN_POINT('',(1.1684,9.525,0.));
#1956=CARTESIAN_POINT('',(0.,9.525,0.));
#1957=CARTESIAN_POINT('',(1.1684,9.525,0.));
#1958=CARTESIAN_POINT('Origin',(0.,9.525,0.));
#1959=CARTESIAN_POINT('',(0.,1.5748,-2.54));
#1960=CARTESIAN_POINT('',(0.,9.525,0.));
#1961=CARTESIAN_POINT('Origin',(1.1684,1.1684,-19.05));
#1962=CARTESIAN_POINT('',(1.1684,9.525,-2.54));
#1963=CARTESIAN_POINT('',(1.1684,9.52499999999999,0.));
#1964=CARTESIAN_POINT('Origin',(19.05,9.525,4.07579473983812E-15));
#1965=CARTESIAN_POINT('',(17.4752,0.,3.73886237467817E-15));
#1966=CARTESIAN_POINT('',(1.5748,0.,3.36932365159952E-16));
#1967=CARTESIAN_POINT('',(19.05,1.5748,4.07579473983812E-15));
#1968=CARTESIAN_POINT('Origin',(17.4752,1.5748,3.46944695195361E-15));
#1969=CARTESIAN_POINT('',(19.05,9.525,4.07579473983812E-15));
#1970=CARTESIAN_POINT('',(19.05,9.525,4.07579473983812E-15));
#1971=CARTESIAN_POINT('',(17.8816,9.525,3.82581266246139E-15));
#1972=CARTESIAN_POINT('',(17.8816,9.525,3.82581266246139E-15));
#1973=CARTESIAN_POINT('',(17.8816,1.9812,0.));
#1974=CARTESIAN_POINT('',(17.8816,1.9812,0.));
#1975=CARTESIAN_POINT('',(17.0688,1.1684,0.));
#1976=CARTESIAN_POINT('Origin',(17.0688,1.9812,3.46944695195361E-15));
#1977=CARTESIAN_POINT('',(1.9812,1.1684,0.));
#1978=CARTESIAN_POINT('Origin',(19.05,9.525,-19.05));
#1979=CARTESIAN_POINT('',(19.05,1.5748,-2.54));
#1980=CARTESIAN_POINT('',(19.05,1.5748,3.46944695195361E-15));
#1981=CARTESIAN_POINT('',(19.05,9.525,-2.54));
#1982=CARTESIAN_POINT('',(19.05,1.5748,-2.54));
#1983=CARTESIAN_POINT('',(19.05,9.525,3.46944695195361E-15));
#1984=CARTESIAN_POINT('Origin',(0.,9.525,-19.05));
#1985=CARTESIAN_POINT('',(17.4752,0.,-19.05));
#1986=CARTESIAN_POINT('Origin',(17.4752,1.5748,-19.05));
#1987=CARTESIAN_POINT('',(17.4752,0.,-19.05));
#1988=CARTESIAN_POINT('',(17.0688,1.1684,-19.05));
#1989=CARTESIAN_POINT('',(1.9812,1.1684,-19.05));
#1990=CARTESIAN_POINT('Origin',(17.0688,1.9812,-19.05));
#1991=CARTESIAN_POINT('Origin',(0.,9.525,0.));
#1992=CARTESIAN_POINT('',(17.8816,9.525,-2.54));
#1993=CARTESIAN_POINT('',(19.05,9.525,-2.54));
#1994=CARTESIAN_POINT('',(17.8816,9.525,-2.54));
#1995=CARTESIAN_POINT('Origin',(0.,0.,0.));
#1996=CARTESIAN_POINT('',(17.4752,0.,3.73886237467817E-15));
#1997=CARTESIAN_POINT('',(7.62,-1.98188202593551E-15,-13.335));
#1998=CARTESIAN_POINT('Origin',(9.525,-1.73472347597681E-15,-13.335));
#1999=CARTESIAN_POINT('Origin',(17.8816,13.8684,-19.05));
#2000=CARTESIAN_POINT('',(17.8816,1.9812,-2.54));
#2001=CARTESIAN_POINT('',(17.8816,9.525,-2.54));
#2002=CARTESIAN_POINT('',(17.8816,1.9812,-2.54));
#2003=CARTESIAN_POINT('Origin',(17.8816,1.1684,-19.05));
#2004=CARTESIAN_POINT('',(17.0688,1.1684,-19.05));
#2005=CARTESIAN_POINT('',(7.62,1.1684,-13.335));
#2006=CARTESIAN_POINT('Origin',(9.525,1.1684,-13.335));
#2007=CARTESIAN_POINT('Origin',(17.0688,1.9812,-19.05));
#2008=CARTESIAN_POINT('',(17.6276,1.390957338038,-14.9225));
#2009=CARTESIAN_POINT('',(17.6276,1.390957338038,-16.51));
#2010=CARTESIAN_POINT('',(17.6276,1.390957338038,-14.9225));
#2011=CARTESIAN_POINT('Origin',(17.0688,1.9812,-16.51));
#2012=CARTESIAN_POINT('',(17.6276,1.390957338038,-2.54));
#2013=CARTESIAN_POINT('Origin',(17.0688,1.9812,-2.54));
#2014=CARTESIAN_POINT('',(17.6276,1.390957338038,-4.1275));
#2015=CARTESIAN_POINT('',(17.6276,1.390957338038,-2.54));
#2016=CARTESIAN_POINT('Origin',(17.0688,1.9812,-4.1275));
#2017=CARTESIAN_POINT('',(17.6276,1.390957338038,-6.6675));
#2018=CARTESIAN_POINT('Origin',(17.0688,1.9812,-6.6675));
#2019=CARTESIAN_POINT('',(17.6276,1.390957338038,-8.255));
#2020=CARTESIAN_POINT('',(17.6276,1.390957338038,-6.6675));
#2021=CARTESIAN_POINT('Origin',(17.0688,1.9812,-8.255));
#2022=CARTESIAN_POINT('',(17.6276,1.390957338038,-10.795));
#2023=CARTESIAN_POINT('Origin',(17.0688,1.9812,-10.795));
#2024=CARTESIAN_POINT('',(17.6276,1.390957338038,-12.3825));
#2025=CARTESIAN_POINT('',(17.6276,1.390957338038,-10.795));
#2026=CARTESIAN_POINT('Origin',(17.0688,1.9812,-12.3825));
#2027=CARTESIAN_POINT('Origin',(17.0688,1.9812,-14.9225));
#2028=CARTESIAN_POINT('Origin',(17.4752,1.5748,-19.05));
#2029=CARTESIAN_POINT('',(17.6276,0.00739154015298553,-16.51));
#2030=CARTESIAN_POINT('Origin',(17.4752,1.5748,-16.51));
#2031=CARTESIAN_POINT('',(17.6276,0.00739154015298293,-14.9225));
#2032=CARTESIAN_POINT('',(17.6276,0.00739154015298293,-16.51));
#2033=CARTESIAN_POINT('Origin',(17.4752,1.5748,-14.9225));
#2034=CARTESIAN_POINT('',(17.6276,0.00739154015298553,-12.3825));
#2035=CARTESIAN_POINT('Origin',(17.4752,1.5748,-12.3825));
#2036=CARTESIAN_POINT('',(17.6276,0.00739154015298249,-10.795));
#2037=CARTESIAN_POINT('',(17.6276,0.00739154015298293,-12.3825));
#2038=CARTESIAN_POINT('Origin',(17.4752,1.5748,-10.795));
#2039=CARTESIAN_POINT('',(17.6276,0.00739154015298553,-8.255));
#2040=CARTESIAN_POINT('Origin',(17.4752,1.5748,-8.255));
#2041=CARTESIAN_POINT('',(17.6276,0.00739154015298293,-6.6675));
#2042=CARTESIAN_POINT('',(17.6276,0.00739154015298293,-8.255));
#2043=CARTESIAN_POINT('Origin',(17.4752,1.5748,-6.6675));
#2044=CARTESIAN_POINT('',(17.6276,0.00739154015298553,-4.1275));
#2045=CARTESIAN_POINT('Origin',(17.4752,1.5748,-4.1275));
#2046=CARTESIAN_POINT('',(17.6276,0.00739154015298293,-2.54));
#2047=CARTESIAN_POINT('',(17.6276,0.00739154015298293,-4.1275));
#2048=CARTESIAN_POINT('Origin',(17.4752,1.5748,-2.54));
#2049=CARTESIAN_POINT('Origin',(9.525,-1.73472347597681E-15,-13.335));
#2050=CARTESIAN_POINT('Origin',(1.4224,9.525,-2.54));
#2051=CARTESIAN_POINT('',(1.4224,1.390957338038,-2.54));
#2052=CARTESIAN_POINT('Origin',(1.4224,9.525,-4.1275));
#2053=CARTESIAN_POINT('',(1.4224,1.39095733803799,-4.1275));
#2054=CARTESIAN_POINT('Origin',(-1.59059874910084,9.525,-4.1275));
#2055=CARTESIAN_POINT('Origin',(1.4224,9.525,-6.6675));
#2056=CARTESIAN_POINT('',(1.4224,1.390957338038,-6.6675));
#2057=CARTESIAN_POINT('Origin',(1.4224,9.525,-8.255));
#2058=CARTESIAN_POINT('',(1.4224,1.39095733803799,-8.255));
#2059=CARTESIAN_POINT('Origin',(-1.59059874910084,9.525,-8.255));
#2060=CARTESIAN_POINT('Origin',(1.4224,9.525,-10.795));
#2061=CARTESIAN_POINT('',(1.4224,1.390957338038,-10.795));
#2062=CARTESIAN_POINT('Origin',(1.4224,9.525,-12.3825));
#2063=CARTESIAN_POINT('',(1.4224,1.39095733803799,-12.3825));
#2064=CARTESIAN_POINT('Origin',(-1.59059874910084,9.525,-12.3825));
#2065=CARTESIAN_POINT('Origin',(1.4224,9.525,-14.9225));
#2066=CARTESIAN_POINT('',(1.4224,1.390957338038,-14.9225));
#2067=CARTESIAN_POINT('Origin',(1.4224,9.525,-16.51));
#2068=CARTESIAN_POINT('',(1.4224,1.39095733803799,-16.51));
#2069=CARTESIAN_POINT('Origin',(-1.59059874910084,9.525,-16.51));
#2070=CARTESIAN_POINT('Origin',(20.6405987491008,9.525,-4.1275));
#2071=CARTESIAN_POINT('',(17.6276,1.39095733803801,-4.1275));
#2072=CARTESIAN_POINT('Origin',(17.6276,9.525,-4.1275));
#2073=CARTESIAN_POINT('',(17.6276,1.390957338038,-2.54));
#2074=CARTESIAN_POINT('Origin',(17.6276,9.525,-2.54));
#2075=CARTESIAN_POINT('Origin',(20.6405987491008,9.525,-8.255));
#2076=CARTESIAN_POINT('',(17.6276,1.39095733803801,-8.255));
#2077=CARTESIAN_POINT('Origin',(17.6276,9.525,-8.255));
#2078=CARTESIAN_POINT('',(17.6276,1.390957338038,-6.6675));
#2079=CARTESIAN_POINT('Origin',(17.6276,9.525,-6.6675));
#2080=CARTESIAN_POINT('Origin',(20.6405987491008,9.525,-12.3825));
#2081=CARTESIAN_POINT('',(17.6276,1.39095733803801,-12.3825));
#2082=CARTESIAN_POINT('Origin',(17.6276,9.525,-12.3825));
#2083=CARTESIAN_POINT('',(17.6276,1.390957338038,-10.795));
#2084=CARTESIAN_POINT('Origin',(17.6276,9.525,-10.795));
#2085=CARTESIAN_POINT('Origin',(20.6405987491008,9.525,-16.51));
#2086=CARTESIAN_POINT('',(17.6276,1.39095733803801,-16.51));
#2087=CARTESIAN_POINT('Origin',(17.6276,9.525,-16.51));
#2088=CARTESIAN_POINT('',(17.6276,1.390957338038,-14.9225));
#2089=CARTESIAN_POINT('Origin',(17.6276,9.525,-14.9225));
#2090=UNCERTAINTY_MEASURE_WITH_UNIT(LENGTH_MEASURE(0.01),#2094,
'DISTANCE_ACCURACY_VALUE',
'Maximum model space distance between geometric entities at asserted c
onnectivities');
#2091=UNCERTAINTY_MEASURE_WITH_UNIT(LENGTH_MEASURE(1.E-6),#2094,
'DISTANCE_ACCURACY_VALUE',
'Maximum model space distance between geometric entities at asserted c
onnectivities');
#2092=(
GEOMETRIC_REPRESENTATION_CONTEXT(3)
GLOBAL_UNCERTAINTY_ASSIGNED_CONTEXT((#2090))
GLOBAL_UNIT_ASSIGNED_CONTEXT((#2094,#2097,#2095))
REPRESENTATION_CONTEXT('','3D')
);
#2093=(
GEOMETRIC_REPRESENTATION_CONTEXT(3)
GLOBAL_UNCERTAINTY_ASSIGNED_CONTEXT((#2091))
GLOBAL_UNIT_ASSIGNED_CONTEXT((#2094,#2097,#2095))
REPRESENTATION_CONTEXT('','3D')
);
#2094=(
LENGTH_UNIT()
NAMED_UNIT(*)
SI_UNIT(.MILLI.,.METRE.)
);
#2095=(
NAMED_UNIT(*)
SI_UNIT($,.STERADIAN.)
SOLID_ANGLE_UNIT()
);
#2096=DIMENSIONAL_EXPONENTS(0.,0.,0.,0.,0.,0.,0.);
#2097=(
CONVERSION_BASED_UNIT('degree',#2099)
NAMED_UNIT(#2096)
PLANE_ANGLE_UNIT()
);
#2098=(
NAMED_UNIT(*)
PLANE_ANGLE_UNIT()
SI_UNIT($,.RADIAN.)
);
#2099=PLANE_ANGLE_MEASURE_WITH_UNIT(PLANE_ANGLE_MEASURE(0.01745329252),
#2098);
#2100=SHAPE_DEFINITION_REPRESENTATION(#2101,#2102);
#2101=PRODUCT_DEFINITION_SHAPE('',$,#2104);
#2102=SHAPE_REPRESENTATION('',(#1264),#2092);
#2103=PRODUCT_DEFINITION_CONTEXT('part definition',#2108,'design');
#2104=PRODUCT_DEFINITION('TO220_Heatsink','TO220_Heatsink',#2105,#2103);
#2105=PRODUCT_DEFINITION_FORMATION('',$,#2110);
#2106=PRODUCT_RELATED_PRODUCT_CATEGORY('TO220_Heatsink',
'TO220_Heatsink',(#2110));
#2107=APPLICATION_PROTOCOL_DEFINITION('international standard',
'automotive_design',2009,#2108);
#2108=APPLICATION_CONTEXT(
'Core Data for Automotive Mechanical Design Process');
#2109=PRODUCT_CONTEXT('part definition',#2108,'mechanical');
#2110=PRODUCT('TO220_Heatsink','TO220_Heatsink',$,(#2109));
#2111=PRESENTATION_STYLE_ASSIGNMENT((#2112));
#2112=SURFACE_STYLE_USAGE(.BOTH.,#2113);
#2113=SURFACE_SIDE_STYLE('',(#2114));
#2114=SURFACE_STYLE_FILL_AREA(#2115);
#2115=FILL_AREA_STYLE('',(#2116));
#2116=FILL_AREA_STYLE_COLOUR('',#2117);
#2117=COLOUR_RGB('',0.250980392156863,0.250980392156863,0.250980392156863);
ENDSEC;
END-ISO-10303-21;
